<?xml version="1.0" encoding="UTF-8" standalone="no"?>
<!-- Generator: Adobe Illustrator 28.0.0, SVG Export Plug-In . SVG Version: 6.00 Build 0)  -->

<svg
   version="1.1"
   id="svg8"
   x="0px"
   y="0px"
   viewBox="0 0 512 512"
   style="enable-background:new 0 0 512 512;"
   xml:space="preserve"
   sodipodi:docname="pensieriincodice-2-frame-no-title.svg"
   inkscape:version="1.4.2 (ebf0e940, 2025-05-08)"
   xmlns:inkscape="http://www.inkscape.org/namespaces/inkscape"
   xmlns:sodipodi="http://sodipodi.sourceforge.net/DTD/sodipodi-0.dtd"
   xmlns="http://www.w3.org/2000/svg"
   xmlns:svg="http://www.w3.org/2000/svg"><defs
   id="defs6" />
<style
   type="text/css"
   id="style1">
	.st0{fill:#FB6400;}
	.st1{fill:#FE7E29;}
	.st2{fill:#FEDB53;}
	.st3{fill:#E6E6E6;}
	.st4{fill:#FFFFFF;}
	.st5{fill:none;}
	
		.st6{fill:#313131;stroke:#313131;stroke-width:5.121111e-02;stroke-linecap:round;stroke-linejoin:round;stroke-miterlimit:151.1811;}
	.st7{fill:#313131;stroke:#FFFFFF;stroke-width:0.9311;stroke-linecap:round;stroke-linejoin:round;stroke-miterlimit:151.1811;}
	.st8{fill:#F9F9F9;}
	.st9{fill:none;stroke:#FFFFFF;stroke-width:0.9142;stroke-linecap:square;stroke-miterlimit:151.1811;}
	.st10{fill:none;stroke:#FFFFFF;stroke-width:0.9057;stroke-linecap:square;stroke-miterlimit:151.1811;}
	.st11{fill:none;stroke:#FFFFFF;stroke-width:0.9065;stroke-linecap:square;stroke-miterlimit:151.1811;}
	.st12{fill:none;stroke:#FFFFFF;stroke-width:0.9311;stroke-linecap:square;stroke-miterlimit:151.1811;}
	.st13{fill:none;stroke:#FFFFFF;stroke-width:0.9484;stroke-linecap:square;stroke-miterlimit:151.1811;}
	.st14{fill:#313131;stroke:#FFFFFF;stroke-width:8.229941e-02;stroke-linecap:square;stroke-miterlimit:151.1811;}
	.st15{fill:#313131;stroke:#FFFFFF;stroke-width:4.114968e-02;stroke-linecap:square;stroke-miterlimit:151.1811;}
	.st16{fill:#FF7F2A;}
	.st17{fill:#FFDD55;}
	.st18{fill:#FFFFFF;stroke:#333333;stroke-width:0.8409;stroke-miterlimit:7.0268;}
	.st19{fill:#333333;stroke:#FFFFFF;stroke-width:1.2289;stroke-miterlimit:15.1181;}
	.st20{fill:#333333;stroke:#FFFFFF;stroke-width:1.2335;stroke-miterlimit:15.1181;}
	.st21{fill:#FFFFFF;stroke:#FFFFFF;stroke-width:1.2335;stroke-miterlimit:15.1181;}
	.st22{fill:#FFFFFF;stroke:#1A1A1A;stroke-width:0.8635;stroke-miterlimit:7.4093;}
</style>
<sodipodi:namedview
   bordercolor="#666666"
   borderopacity="1.0"
   id="base"
   inkscape:current-layer="g3"
   inkscape:cx="143.74999"
   inkscape:cy="403.99998"
   inkscape:document-units="px"
   inkscape:guide-bbox="true"
   inkscape:pageopacity="0.0"
   inkscape:pageshadow="2"
   inkscape:showpageshadow="false"
   inkscape:window-height="927"
   inkscape:window-maximized="0"
   inkscape:window-width="1920"
   inkscape:window-x="0"
   inkscape:window-y="561"
   inkscape:zoom="2.0000001"
   pagecolor="#ffffff"
   showgrid="false"
   showguides="true"
   units="px"
   inkscape:pagecheckerboard="0"
   inkscape:deskcolor="#d1d1d1">
	<sodipodi:guide
   id="guide3487"
   inkscape:locked="false"
   orientation="0,1"
   position="-332.35422,617.06815" />
	<sodipodi:guide
   id="guide3489"
   inkscape:locked="false"
   orientation="0,1"
   position="499.17318,495.60396" />
	<sodipodi:guide
   id="guide4082"
   inkscape:locked="false"
   orientation="1,0"
   position="-201.36029,153.72846" />
<sodipodi:guide
   position="314.66251,314.71721"
   orientation="0.70710678,-0.70710678"
   id="guide6"
   inkscape:locked="false" /></sodipodi:namedview>
<g
   id="g3"
   inkscape:export-filename="g3.png"
   inkscape:export-xdpi="96"
   inkscape:export-ydpi="96">
	<path
   class="st0"
   d="M 0,0 V 512 H 512 V 0 Z M 495.4,495.3 H 16.6 V 16.430376 l 478.9,-0.05074 V 495.3 Z"
   id="path1"
   sodipodi:nodetypes="ccccccccccc"
   inkscape:export-filename="../covers/frame.png"
   inkscape:export-xdpi="96"
   inkscape:export-ydpi="96" />
	
	<g
   id="g2"
   transform="matrix(0.67712179,0,0,0.67712179,-0.00471112,165.31364)">
		<circle
   class="st0"
   cx="108.4"
   cy="415.89999"
   r="96.099998"
   id="circle1" />
		
			<g
   id="layer1_00000047046566612899059880000010543349071180656017_"
   transform="translate(0,-98.562502)"
   inkscape:groupmode="layer"
   inkscape:label="Livello 1">
			<g
   id="g922_00000017506126460322690360000004524697119432662931_"
   transform="translate(31.485409,-31.485417)">
				<circle
   id="circle1763_00000020363093764436480620000013924789321117049504_"
   class="st1"
   cx="76.900002"
   cy="569.29999"
   r="69.5" />
				<circle
   id="circle1769_00000027594140384716525090000015159191429704132753_"
   class="st2"
   cx="76.900002"
   cy="591.70001"
   r="41.599998" />
				
					<path
   id="path1765_00000159469786692585911160000002368750457859403156_"
   inkscape:connector-curvature="0"
   sodipodi:nodetypes="cscscscsccscsc"
   class="st3"
   d="m -16.7,477.7 c 0,0 2.5,-28.7 22.3,-40.2 25.2,-14.5 48,-2 48,-2 0,0 27.5,-48.7 77.6,-29.8 50.7,19.1 37.6,71.5 37.6,71.5 0,0 16.5,5.6 16.5,27 0,28.3 -27.3,26.2 -27.3,26.2 0,0 -10.9,13.6 -28,13.7 -21.5,0.2 -29.9,-14 -29.9,-14 H 69 c 0,0 -7.5,27.3 -39.2,27.3 -30.5,0 -39.7,-27.5 -39.7,-27.5 0,0 -21.6,-0.8 -21.6,-24.8 0,-22 14.8,-27.4 14.8,-27.4 z" />
				
					<path
   id="path1767_00000067958359789564143390000000029329864887250604_"
   inkscape:connector-curvature="0"
   sodipodi:nodetypes="cscscscsccscsc"
   class="st4"
   d="m -8.7,479.9 c 0,0 2.2,-26.3 20.4,-36.8 23,-13.3 43.8,-1.8 43.8,-1.8 0,0 25.1,-44.5 70.9,-27.3 46.4,17.4 34.4,65.4 34.4,65.4 0,0 15.1,5.2 15.1,24.6 0,25.9 -25,23.9 -25,23.9 0,0 -9.8,12.4 -25.5,12.6 C 105.7,540.7 98,527.7 98,527.7 H 69.7 c 0,0 -6.9,25 -35.9,25 -27.9,0 -36.3,-25.1 -36.3,-25.1 0,0 -19.8,-0.7 -19.8,-22.6 0.1,-20.1 13.6,-25.1 13.6,-25.1 z" />
				
					<g
   id="flowRoot1777_00000143586374701019917650000016425582827478909848_"
   transform="matrix(2.2760443,0,0,2.2760443,467.00767,408.06143)">
					<path
   id="path879_00000105427045015094693430000000655030687666763904_"
   inkscape:connector-curvature="0"
   d="m -197.4,31.8 c -0.2,0 -0.3,0 -0.4,-0.1 -0.1,-0.1 -0.1,-0.2 -0.1,-0.3 0,-0.1 0.1,-0.2 0.2,-0.3 0.1,-0.1 0.3,-0.1 0.5,-0.1 0.3,0 0.6,0 1,-0.1 0.3,-0.1 0.6,-0.2 0.8,-0.4 0.6,-0.4 1.1,-0.9 1.4,-1.6 0.4,-0.7 0.6,-1.3 0.7,-1.9 0.1,-0.6 0.1,-1.2 0,-1.6 -0.1,-0.5 -0.4,-0.7 -0.7,-0.7 -0.3,0 -0.5,0.1 -0.8,0.3 -0.2,0.2 -0.4,0.4 -0.6,0.6 -0.2,0.2 -0.4,0.5 -0.5,0.8 -0.2,0.3 -0.3,0.5 -0.4,0.7 -0.2,0.4 -0.5,1 -1,1.9 -0.4,0.9 -0.8,1.9 -1.2,2.9 -0.4,1 -0.7,1.9 -0.9,2.8 -0.3,0.8 -0.3,1.4 -0.2,1.6 0.1,0.2 0.1,0.3 0,0.3 -0.1,0.1 -0.2,0.1 -0.3,0 -0.1,-0.1 -0.2,-0.2 -0.3,-0.4 -0.1,-0.2 -0.1,-0.5 -0.1,-0.9 0.1,-0.9 0.3,-2 0.8,-3.5 0.5,-1.5 1.1,-3.2 1.7,-5.2 0.3,-0.8 0.3,-1.4 0,-1.8 -0.2,-0.4 -0.5,-0.5 -1,-0.3 -0.6,0.2 -1.1,0.6 -1.5,1.3 -0.4,0.7 -0.6,1.3 -0.6,2 0,0.3 -0.1,0.5 -0.2,0.7 -0.1,0.1 -0.3,0.2 -0.4,0.2 -0.1,0 -0.3,-0.1 -0.4,-0.3 -0.1,-0.2 -0.1,-0.4 -0.1,-0.7 0.1,-0.5 0.3,-1 0.5,-1.3 0.3,-0.4 0.5,-0.7 0.8,-1 0.3,-0.3 0.6,-0.5 0.9,-0.7 0.3,-0.2 0.6,-0.3 0.9,-0.3 0.6,-0.1 1.2,0 1.6,0.3 0.4,0.3 0.6,0.9 0.5,1.8 0.4,-0.6 0.9,-1.1 1.3,-1.5 0.5,-0.4 1,-0.6 1.4,-0.6 0.8,-0.1 1.4,0.1 1.6,0.7 0.3,0.5 0.4,1.2 0.3,2 -0.1,0.8 -0.4,1.5 -0.9,2.4 -0.5,0.8 -1.1,1.4 -1.9,1.8 -0.5,0.3 -1,0.5 -1.5,0.6 -0.6,-0.1 -0.9,-0.1 -0.9,-0.1 z m 4,-3.2 c 0.3,-0.3 0.4,-0.7 0.5,-1.1 0.1,-0.4 0.2,-0.8 0.2,-1.1 0,-0.3 0,-0.6 -0.1,-0.8 -0.1,-0.2 -0.1,-0.4 -0.1,-0.4 0.1,0.1 0.1,0.3 0.1,0.6 0,0.3 0,0.6 0,0.9 0,0.3 -0.1,0.7 -0.2,1.1 -0.1,0.4 -0.2,0.6 -0.4,0.8 z m -6.7,6.5 v 0 c 0.1,-0.1 0.1,-0.2 0,-0.2 -0.1,0 -0.1,0.1 0,0.2 z m 0.1,-0.6 c 0.1,0.1 0.1,0.1 0.1,0 0,-0.1 0,-0.1 0,-0.2 -0.1,0 -0.2,0 -0.1,0.2 -0.1,-0.1 -0.1,0 0,0 z m -0.2,1.2 c 0.1,0 0.1,0 0,0 0.1,-0.2 0.1,-0.2 0,-0.2 -0.1,-0.1 -0.1,0 0,0.2 z m 2.3,-7.7 c 0.1,-0.2 0,-0.1 -0.1,0.2 -0.1,0.3 -0.3,0.7 -0.5,1.2 -0.2,0.4 -0.3,0.9 -0.5,1.3 -0.1,0.4 -0.2,0.7 -0.2,0.8 0,-0.1 0.1,-0.4 0.2,-0.6 0.1,-0.3 0.2,-0.6 0.3,-1 0.1,-0.4 0.3,-0.7 0.4,-1 0.3,-0.4 0.4,-0.6 0.4,-0.9 z m 0.4,-1 c 0.1,0 0.1,0 0.2,-0.1 0,-0.1 0,-0.2 0,-0.2 -0.1,0 -0.1,0 -0.2,0.1 -0.1,0.1 -0.1,0.2 0,0.2 z m -0.2,0.7 c 0.1,0 0.1,0 0.2,-0.1 0,-0.1 0,-0.1 0,-0.2 -0.1,0 -0.1,0 -0.2,0.1 -0.1,0.1 -0.1,0.2 0,0.2 z" />
					<path
   id="path881_00000173121515409105243370000006737754136556292744_"
   inkscape:connector-curvature="0"
   d="m -189.8,28.4 c 0.4,0 0.7,0.2 0.9,0.4 0.2,0.2 0.2,0.4 0.2,0.8 0,0.3 -0.2,0.6 -0.4,1 -0.2,0.3 -0.4,0.6 -0.7,0.8 -0.4,0.4 -0.9,0.7 -1.4,0.9 -0.5,0.2 -0.9,0.4 -1.4,0.5 -0.1,0.3 -0.1,0.5 -0.1,0.8 0,0.3 0.1,0.5 0.2,0.8 0.1,0.2 0.3,0.4 0.5,0.5 0.3,0.1 0.6,0.1 1,-0.1 0.8,-0.3 1.5,-0.8 2.1,-1.6 0.6,-0.8 1.1,-1.6 1.6,-2.4 0.1,-0.1 0.2,-0.1 0.2,0 0.1,0.1 0.1,0.1 0,0.2 -0.2,0.4 -0.5,0.9 -0.8,1.4 -0.3,0.5 -0.7,1 -1.2,1.5 -0.4,0.4 -0.9,0.8 -1.4,1.1 -0.5,0.3 -1.1,0.4 -1.6,0.3 -0.6,-0.1 -1.1,-0.4 -1.3,-0.8 -0.3,-0.5 -0.3,-1.1 -0.2,-1.8 0.1,-0.5 0.3,-1 0.5,-1.5 0.2,-0.5 0.5,-1 0.8,-1.4 0.4,-0.4 0.8,-0.8 1.2,-1 0.5,-0.3 0.9,-0.4 1.3,-0.4 z m 0,0.7 c -0.2,0.1 -0.5,0.2 -0.8,0.4 -0.3,0.2 -0.5,0.5 -0.8,0.8 -0.3,0.3 -0.5,0.7 -0.7,1.1 -0.2,0.4 -0.3,0.7 -0.4,1.1 0.5,-0.2 1,-0.4 1.3,-0.6 0.4,-0.2 0.8,-0.5 1.1,-0.8 0.2,-0.2 0.4,-0.4 0.5,-0.6 0.1,-0.3 0.2,-0.5 0.3,-0.7 0.1,-0.2 0,-0.4 -0.1,-0.5 0,-0.3 -0.2,-0.3 -0.4,-0.2 z m 0,-0.4 c -0.3,0 -0.6,0 -0.9,0.2 -0.3,0.1 -0.5,0.3 -0.7,0.5 -0.2,0.2 -0.4,0.3 -0.5,0.5 -0.1,0.2 -0.1,0.3 -0.1,0.3 0.1,-0.1 0.1,-0.2 0.3,-0.3 0.1,-0.2 0.3,-0.3 0.5,-0.5 0.2,-0.2 0.4,-0.3 0.6,-0.4 0.3,-0.3 0.5,-0.3 0.8,-0.3 z m -2.4,1.6 c 0,0.1 0.1,0.1 0.1,0 0.1,-0.1 0.1,-0.1 0,-0.2 0,0 -0.1,0 -0.1,0.2 z m -0.2,0.4 c 0,0.1 0.1,0.1 0.1,0 0.1,-0.1 0.1,-0.1 0,-0.2 -0.1,-0.1 -0.1,-0.1 -0.1,0 0,0.1 0,0.2 0,0.2 z m -0.6,3.6 c 0.1,0.4 0.2,0.6 0.5,0.8 0.2,0.1 0.4,0.2 0.5,0.1 -0.1,0 -0.3,0 -0.5,-0.1 -0.1,-0.2 -0.3,-0.4 -0.5,-0.8 z" />
					<path
   id="path883_00000029007489825900940280000005448969046033632186_"
   inkscape:connector-curvature="0"
   d="m -180.2,30.4 c 0,-0.1 0.1,-0.1 0.2,0 0.1,0 0.2,0.1 0.1,0.1 -0.2,0.4 -0.4,0.9 -0.7,1.5 -0.3,0.6 -0.6,1.1 -1,1.6 -0.4,0.5 -0.7,1 -1.1,1.3 -0.4,0.3 -0.8,0.5 -1.2,0.4 -0.4,-0.1 -0.7,-0.2 -0.8,-0.5 -0.1,-0.3 -0.2,-0.7 -0.1,-1.1 0.1,-0.4 0.2,-1 0.3,-1.5 0.2,-0.6 0.4,-1.1 0.6,-1.7 0.2,-0.5 0.3,-0.9 0.3,-1.1 0.1,-0.2 0,-0.3 -0.1,-0.3 -0.1,0 -0.2,0.1 -0.5,0.3 -0.2,0.2 -0.4,0.4 -0.8,0.8 -0.8,0.9 -1.4,1.7 -1.9,2.4 -0.5,0.7 -0.8,1.5 -0.8,2.4 0,0.2 -0.1,0.4 -0.2,0.5 -0.1,0.1 -0.2,0 -0.3,0 -0.2,-0.2 -0.3,-0.6 -0.2,-1.2 0.1,-0.6 0.2,-1.3 0.5,-2 0.2,-0.7 0.5,-1.3 0.7,-1.9 0.3,-0.6 0.4,-1 0.5,-1.1 0.2,-0.3 0.4,-0.4 0.6,-0.5 0.3,-0.1 0.5,-0.2 0.6,-0.1 0.2,0 0.3,0.1 0.3,0.3 0,0.2 -0.1,0.4 -0.3,0.7 -0.3,0.4 -0.6,0.8 -0.8,1.3 -0.2,0.5 -0.4,0.8 -0.5,1.1 0.2,-0.3 0.4,-0.7 0.8,-1.1 0.3,-0.4 0.7,-0.8 1,-1.1 0.4,-0.3 0.7,-0.6 1.1,-0.8 0.3,-0.2 0.6,-0.3 0.9,-0.2 0.3,0.1 0.4,0.3 0.6,0.6 0.1,0.3 0.1,0.8 -0.3,1.5 -0.1,0.1 -0.2,0.4 -0.5,1 -0.3,0.6 -0.5,1.2 -0.6,1.8 -0.1,0.3 -0.1,0.5 -0.2,0.8 0,0.3 0,0.4 0.1,0.5 0.1,0.1 0.3,0.1 0.4,0 0.2,-0.1 0.4,-0.3 0.8,-0.7 0.4,-0.6 0.9,-1.1 1.2,-1.6 0.5,-0.8 0.9,-1.5 1.3,-2.4 z m -5.9,-1.5 c -0.3,0.3 -0.5,0.6 -0.6,1 -0.1,0.3 -0.2,0.6 -0.2,0.7 0.1,-0.5 0.4,-1.1 0.8,-1.7 z m -1.8,5.2 c 0.1,0.1 0.1,0 0.1,0 0,-0.1 0,-0.2 0,-0.2 -0.2,0 -0.3,0.1 -0.1,0.2 z m 0.1,-0.6 c 0.1,0.1 0.1,0 0.1,0 0,-0.1 0,-0.2 0,-0.2 -0.2,0 -0.3,0.1 -0.1,0.2 z m -0.2,1.3 c 0.1,0 0.2,0 0.2,-0.1 0,-0.1 0,-0.2 -0.2,-0.1 -0.1,0 -0.2,0.1 0,0.2 z m 4,-1.8 c -0.1,0.2 -0.1,0.2 0,0 0.2,-0.4 0.4,-0.7 0.5,-1.1 0.1,-0.4 0.3,-0.9 0.3,-1.3 0.1,-0.4 0.1,-0.7 0.1,-0.7 0,0.3 -0.2,0.8 -0.4,1.4 -0.2,0.6 -0.4,1.2 -0.5,1.7 z m -0.4,0.8 c 0,0.1 0,0.1 0,0 0.1,-0.2 0.1,-0.2 0.1,-0.2 -0.1,0 -0.1,0 -0.1,0.1 -0.1,0.1 0,0.1 0,0.1 z m -0.1,0.7 c 0.1,0 0.1,0 0.1,-0.1 0,-0.1 0,-0.2 -0.1,-0.1 -0.1,0 -0.1,0.1 0,0.2 z" />
					<path
   id="path885_00000169549303236295575890000000449319571457484958_"
   inkscape:connector-curvature="0"
   d="m -177.2,30.1 c -0.1,0.2 -0.3,0.3 -0.4,0.3 -0.1,0 -0.3,0 -0.4,0 -0.1,-0.1 -0.1,-0.1 -0.2,-0.3 0,-0.1 0.1,-0.3 0.2,-0.5 0.2,-0.2 0.4,-0.4 0.5,-0.6 0.1,-0.2 0.2,-0.4 0,-0.7 -0.1,-0.2 -0.2,-0.3 -0.5,-0.3 -0.2,0 -0.4,0 -0.7,0.2 -0.2,0.1 -0.4,0.3 -0.6,0.5 -0.2,0.2 -0.3,0.5 -0.3,0.8 0,0.3 0.1,0.5 0.2,0.7 0.1,0.2 0.3,0.4 0.4,0.7 0.2,0.2 0.3,0.4 0.5,0.7 0.2,0.2 0.4,0.4 0.5,0.7 0.3,0.5 0.4,1 0.3,1.5 -0.1,0.5 -0.2,0.9 -0.5,1.3 -0.3,0.3 -0.6,0.6 -1.1,0.8 -0.4,0.2 -0.9,0.2 -1.3,0.2 -0.4,-0.1 -0.7,-0.2 -0.9,-0.4 -0.2,-0.2 -0.4,-0.4 -0.4,-0.7 -0.1,-0.3 0,-0.6 0,-0.8 0.1,-0.3 0.2,-0.5 0.5,-0.7 0.2,-0.2 0.4,-0.4 0.6,-0.4 0.2,0 0.3,0 0.4,0.1 0.1,0.1 0.2,0.2 0.1,0.3 0,0.1 -0.1,0.3 -0.3,0.4 -0.6,0.4 -0.9,0.8 -0.8,1.2 0,0.3 0.3,0.5 0.9,0.6 0.3,0.1 0.6,0 0.9,-0.2 0.3,-0.2 0.5,-0.4 0.6,-0.7 0.2,-0.3 0.2,-0.7 0.2,-1.1 0,-0.4 -0.2,-0.9 -0.5,-1.3 -0.2,-0.2 -0.4,-0.4 -0.5,-0.6 -0.2,-0.3 -0.3,-0.5 -0.5,-0.7 -0.1,-0.3 -0.2,-0.5 -0.3,-0.8 -0.1,-0.3 -0.1,-0.5 0,-0.8 0.1,-0.4 0.3,-0.8 0.6,-1.1 0.3,-0.3 0.7,-0.5 1.1,-0.7 0.9,-0.3 1.5,-0.1 1.8,0.6 0.1,0.3 0.2,0.5 0.2,0.9 0,0.4 -0.1,0.7 -0.3,0.9 z m -1,-2.1 c -0.4,0 -0.7,0 -0.9,0.2 -0.2,0.1 -0.4,0.3 -0.5,0.4 -0.1,0.2 -0.2,0.3 -0.3,0.5 -0.1,0.1 -0.1,0.2 -0.1,0.3 0.1,-0.1 0.1,-0.2 0.2,-0.3 0.1,-0.1 0.2,-0.3 0.3,-0.4 0.1,-0.1 0.3,-0.3 0.5,-0.4 0.2,-0.2 0.5,-0.3 0.8,-0.3 z m -1.8,1.7 c 0.1,0 0.1,0 0.1,0 0,-0.1 0,-0.1 -0.1,-0.2 -0.2,0 -0.2,0 0,0.2 z m 0,0.5 c 0.1,0 0.1,0 0.1,0 0.1,-0.1 0,-0.1 -0.1,-0.2 -0.1,0 -0.1,0 -0.1,0.1 0,0 0,0 0.1,0.1 z m 1.4,5 c 0.4,-0.4 0.6,-0.8 0.5,-1.1 0,-0.3 -0.1,-0.6 -0.2,-0.8 0.1,0.3 0.2,0.5 0.1,0.8 0,0.3 -0.1,0.6 -0.4,1.1 z" />
					<path
   id="path887_00000068676130309301433930000013572533540072151699_"
   inkscape:connector-curvature="0"
   d="m -175.8,34.1 c -0.1,0.3 -0.1,0.5 0,0.6 0,0.1 0.1,0.2 0.2,0.2 0.1,0 0.2,0 0.3,-0.1 0.1,-0.1 0.3,-0.2 0.4,-0.3 0.5,-0.5 0.9,-1 1.3,-1.6 0.4,-0.6 0.8,-1.3 1.3,-2.1 0.1,-0.1 0.1,-0.1 0.2,0 0.1,0 0.1,0.1 0.1,0.1 0,0 -0.1,0.1 -0.1,0.2 0,0.1 -0.1,0.2 -0.1,0.3 -0.1,0.1 -0.1,0.3 -0.2,0.5 -0.1,0.3 -0.3,0.6 -0.5,1 -0.3,0.4 -0.5,0.8 -0.9,1.2 -0.3,0.4 -0.6,0.7 -1,1 -0.3,0.3 -0.7,0.4 -1,0.3 -0.3,-0.1 -0.6,-0.2 -0.7,-0.4 -0.1,-0.3 -0.2,-0.6 -0.2,-1 0.1,-0.4 0.2,-1 0.4,-1.6 0.2,-0.6 0.3,-1.2 0.5,-1.6 0.1,-0.3 0.2,-0.6 0.3,-0.8 0.1,-0.3 0.2,-0.4 0.3,-0.5 0.2,-0.3 0.4,-0.4 0.5,-0.5 0.2,-0.1 0.4,-0.1 0.5,0 0.1,0.1 0.2,0.2 0.3,0.4 0,0.2 0,0.4 -0.2,0.7 -0.2,0.3 -0.4,0.6 -0.5,0.9 -0.1,0.3 -0.3,0.6 -0.4,0.9 -0.1,0.3 -0.2,0.6 -0.3,1 -0.3,0.2 -0.4,0.7 -0.5,1.2 z m -0.4,0.6 c 0,-0.4 0.1,-0.7 0.1,-1 0,-0.3 0.1,-0.6 0.1,-0.8 -0.1,0.1 -0.1,0.4 -0.2,0.8 0,0.4 -0.1,0.8 0,1 z m 1.3,-5 c -0.2,0.1 -0.2,0.1 0,0.3 0.1,0 0.1,0 0.1,-0.1 0,-0.1 -0.1,-0.2 -0.1,-0.2 z m -0.3,0.6 c -0.1,0 -0.1,0 -0.1,0.1 0,0 0,0.1 0.1,0.1 0.1,0.1 0.1,0 0.1,0 -0.1,-0.2 -0.1,-0.2 -0.1,-0.2 z m 0.6,-1.1 c -0.2,0.1 -0.2,0.1 -0.1,0.3 0.1,0.1 0.1,0 0.1,0 0.1,-0.2 0.1,-0.3 0,-0.3 z m 0.2,-1.2 c 0,-0.1 0.1,-0.4 0.2,-0.8 0.1,-0.4 0.2,-0.7 0.4,-0.9 0.1,-0.2 0.3,-0.4 0.4,-0.4 0.2,-0.1 0.4,0 0.5,0 0.1,0.1 0.2,0.2 0.2,0.4 0,0.2 -0.1,0.4 -0.3,0.6 -0.3,0.3 -0.5,0.5 -0.6,0.7 -0.2,0.1 -0.3,0.3 -0.4,0.5 -0.1,0.1 -0.1,0.2 -0.2,0.1 -0.2,0.2 -0.2,0.1 -0.2,-0.2 z" />
					<path
   id="path889_00000058571533680718113010000009192128912708885415_"
   inkscape:connector-curvature="0"
   d="m -169.3,28.4 c 0.4,0 0.7,0.2 0.9,0.4 0.2,0.2 0.2,0.4 0.2,0.8 0,0.3 -0.2,0.6 -0.4,1 -0.2,0.3 -0.4,0.6 -0.7,0.8 -0.4,0.4 -0.9,0.7 -1.4,0.9 -0.5,0.2 -0.9,0.4 -1.4,0.5 -0.1,0.3 -0.1,0.5 -0.1,0.8 0,0.3 0.1,0.5 0.2,0.8 0.1,0.2 0.3,0.4 0.5,0.5 0.3,0.1 0.6,0.1 1,-0.1 0.8,-0.3 1.5,-0.8 2.1,-1.6 0.6,-0.8 1.1,-1.6 1.6,-2.4 0.1,-0.1 0.2,-0.1 0.2,0 0.1,0.1 0.1,0.1 0,0.2 -0.2,0.4 -0.5,0.9 -0.8,1.4 -0.3,0.5 -0.7,1 -1.2,1.5 -0.4,0.4 -0.9,0.8 -1.4,1.1 -0.5,0.3 -1.1,0.4 -1.6,0.3 -0.6,-0.1 -1.1,-0.4 -1.3,-0.8 -0.3,-0.5 -0.3,-1.1 -0.2,-1.8 0.1,-0.5 0.3,-1 0.5,-1.5 0.2,-0.5 0.5,-1 0.8,-1.4 0.4,-0.4 0.8,-0.8 1.2,-1 0.5,-0.3 0.9,-0.4 1.3,-0.4 z m 0,0.7 c -0.2,0.1 -0.5,0.2 -0.8,0.4 -0.3,0.2 -0.5,0.5 -0.8,0.8 -0.3,0.3 -0.5,0.7 -0.7,1.1 -0.2,0.4 -0.3,0.7 -0.4,1.1 0.5,-0.2 1,-0.4 1.3,-0.6 0.4,-0.2 0.8,-0.5 1.1,-0.8 0.2,-0.2 0.4,-0.4 0.5,-0.6 0.1,-0.3 0.2,-0.5 0.3,-0.7 0.1,-0.2 0,-0.4 -0.1,-0.5 0,-0.3 -0.2,-0.3 -0.4,-0.2 z m 0,-0.4 c -0.3,0 -0.6,0 -0.9,0.2 -0.3,0.1 -0.5,0.3 -0.7,0.5 -0.2,0.2 -0.4,0.3 -0.5,0.5 -0.1,0.2 -0.1,0.3 -0.1,0.3 0.1,-0.1 0.1,-0.2 0.3,-0.3 0.1,-0.2 0.3,-0.3 0.5,-0.5 0.2,-0.2 0.4,-0.3 0.6,-0.4 0.3,-0.3 0.5,-0.3 0.8,-0.3 z m -2.4,1.6 c 0,0.1 0.1,0.1 0.1,0 0.1,-0.1 0.1,-0.1 0,-0.2 0,0 -0.1,0 -0.1,0.2 z m -0.2,0.4 c 0,0.1 0.1,0.1 0.1,0 0.1,-0.1 0.1,-0.1 0,-0.2 -0.1,-0.1 -0.1,-0.1 -0.1,0 0,0.1 0,0.2 0,0.2 z m -0.6,3.6 c 0.1,0.4 0.2,0.6 0.5,0.8 0.2,0.1 0.4,0.2 0.5,0.1 -0.1,0 -0.3,0 -0.5,-0.1 -0.1,-0.2 -0.3,-0.4 -0.5,-0.8 z" />
					<path
   id="path891_00000122696473304757044610000010346291294180994187_"
   inkscape:connector-curvature="0"
   d="m -167.2,35 c 0,0.2 -0.1,0.4 -0.2,0.5 -0.1,0.1 -0.3,0 -0.4,0 -0.3,-0.2 -0.3,-0.6 -0.3,-1.2 0.1,-0.6 0.3,-1.3 0.5,-2.1 0.2,-0.7 0.5,-1.4 0.8,-2 0.3,-0.6 0.5,-1 0.6,-1.1 0.2,-0.3 0.4,-0.4 0.7,-0.5 0.3,-0.1 0.4,-0.1 0.6,0 0.2,0 0.3,0.1 0.3,0.3 0,0.2 -0.1,0.4 -0.3,0.7 -0.4,0.4 -0.7,0.9 -0.9,1.3 -0.2,0.4 -0.3,0.7 -0.4,0.9 0.1,-0.1 0.3,-0.4 0.6,-0.8 0.3,-0.4 0.6,-0.8 0.9,-1.1 0.4,-0.4 0.7,-0.7 1.1,-1 0.4,-0.3 0.8,-0.4 1.1,-0.3 0.3,0.1 0.5,0.4 0.6,0.8 0.1,0.4 0,1 -0.3,1.5 -0.1,0.3 -0.3,0.5 -0.5,0.5 -0.2,0.1 -0.3,0.1 -0.5,0 -0.1,-0.1 -0.2,-0.2 -0.2,-0.4 0,-0.2 0.1,-0.4 0.3,-0.7 0.1,-0.1 0.1,-0.3 0.2,-0.4 0.1,-0.2 0.2,-0.3 0.2,-0.5 0.1,-0.2 0.1,-0.3 0.1,-0.4 0,-0.1 0,-0.2 -0.1,-0.2 -0.2,0 -0.4,0.1 -0.7,0.3 -0.3,0.2 -0.6,0.5 -1,0.8 -0.3,0.3 -0.7,0.7 -1.1,1.2 -0.3,0.4 -0.6,0.8 -0.9,1.3 -0.1,0.1 -0.2,0.3 -0.3,0.5 -0.1,0.2 -0.2,0.5 -0.3,0.8 -0.1,0.3 -0.2,0.5 -0.2,0.8 0.1,0.1 0,0.3 0,0.5 z m 1.4,-5.8 c -0.3,0.3 -0.5,0.6 -0.7,1 -0.1,0.3 -0.2,0.5 -0.2,0.6 0.2,-0.4 0.5,-0.9 0.9,-1.6 z m -1.6,4.3 c -0.1,0.3 -0.2,0.6 -0.3,0.9 -0.1,0.4 -0.1,0.6 -0.1,0.6 0,-0.2 0.1,-0.4 0.2,-0.7 0.1,-0.3 0.1,-0.6 0.2,-0.8 z m 0,-0.2 c 0.1,0.1 0.1,0 0.2,0 0,-0.1 0,-0.2 0,-0.2 -0.1,0 -0.1,0 -0.1,0.1 -0.1,0 -0.1,0 -0.1,0.1 z m 1.7,-4.2 c 0.1,0.1 0.1,0 0.2,0 0.1,-0.1 0.1,-0.1 0,-0.2 -0.2,-0.1 -0.3,0 -0.2,0.2 z" />
					<path
   id="path893_00000134207749268373622550000007599125965407724980_"
   inkscape:connector-curvature="0"
   d="m -161.3,34.1 c -0.1,0.3 -0.1,0.5 0,0.6 0,0.1 0.1,0.2 0.2,0.2 0.1,0 0.2,0 0.3,-0.1 0.1,-0.1 0.3,-0.2 0.4,-0.3 0.5,-0.5 0.9,-1 1.3,-1.6 0.4,-0.6 0.8,-1.3 1.3,-2.1 0.1,-0.1 0.1,-0.1 0.2,0 0.1,0 0.1,0.1 0.1,0.1 0,0 -0.1,0.1 -0.1,0.2 0,0.1 -0.1,0.2 -0.1,0.3 -0.1,0.1 -0.1,0.3 -0.2,0.5 -0.1,0.3 -0.3,0.6 -0.5,1 -0.3,0.4 -0.5,0.8 -0.9,1.2 -0.3,0.4 -0.6,0.7 -1,1 -0.3,0.3 -0.7,0.4 -1,0.3 -0.3,-0.1 -0.6,-0.2 -0.7,-0.4 -0.1,-0.3 -0.2,-0.6 -0.2,-1 0.1,-0.4 0.2,-1 0.4,-1.6 0.2,-0.6 0.3,-1.2 0.5,-1.6 0.1,-0.3 0.2,-0.6 0.3,-0.8 0.1,-0.3 0.2,-0.4 0.3,-0.5 0.2,-0.3 0.4,-0.4 0.5,-0.5 0.2,-0.1 0.4,-0.1 0.5,0 0.1,0.1 0.2,0.2 0.3,0.4 0,0.2 0,0.4 -0.2,0.7 -0.2,0.3 -0.4,0.6 -0.5,0.9 -0.1,0.3 -0.3,0.6 -0.4,0.9 -0.1,0.3 -0.2,0.6 -0.3,1 -0.3,0.2 -0.4,0.7 -0.5,1.2 z m -0.4,0.6 c 0,-0.4 0.1,-0.7 0.1,-1 0,-0.3 0.1,-0.6 0.1,-0.8 -0.1,0.1 -0.1,0.4 -0.2,0.8 -0.1,0.4 -0.1,0.8 0,1 z m 1.2,-5 c -0.2,0.1 -0.2,0.1 0,0.3 0.1,0 0.1,0 0.1,-0.1 0,-0.1 0,-0.2 -0.1,-0.2 z m -0.3,0.6 c -0.1,0 -0.1,0 -0.1,0.1 0,0 0,0.1 0.1,0.1 0.1,0.1 0.1,0 0.1,0 0,-0.2 0,-0.2 -0.1,-0.2 z m 0.7,-1.1 c -0.2,0.1 -0.2,0.1 -0.1,0.3 0.1,0.1 0.1,0 0.1,0 0.1,-0.2 0,-0.3 0,-0.3 z m 0.2,-1.2 c 0,-0.1 0.1,-0.4 0.2,-0.8 0.1,-0.4 0.2,-0.7 0.4,-0.9 0.1,-0.2 0.3,-0.4 0.4,-0.4 0.2,-0.1 0.4,0 0.5,0 0.1,0.1 0.2,0.2 0.2,0.4 0,0.2 -0.1,0.4 -0.3,0.6 -0.3,0.3 -0.5,0.5 -0.6,0.7 -0.2,0.1 -0.3,0.3 -0.4,0.5 -0.1,0.1 -0.1,0.2 -0.2,0.1 -0.2,0.2 -0.2,0.1 -0.2,-0.2 z" />
				</g>
				
					<g
   id="flowRoot1785_00000044158810358184300010000012670917556939926927_"
   transform="matrix(1.0718561,0,0,0.99542984,249.55986,305.68509)">
					<path
   id="path858_00000090991077691064642410000011550930014195232394_"
   inkscape:connector-curvature="0"
   d="m -196.1,204 v -13.5 h 1.7 c 0.4,0 0.7,-0.3 0.7,-0.6 0,-0.4 -0.3,-0.6 -0.7,-0.6 h -2.8 c -0.4,0 -0.7,0.3 -0.7,0.7 v 14.6 c 0,0.4 0.3,0.7 0.7,0.7 h 2.8 c 0.4,0 0.7,-0.3 0.7,-0.7 0,-0.4 -0.3,-0.6 -0.7,-0.6 h -1.7 z" />
					<path
   id="path860_00000047038430789201010840000011743813656145468349_"
   inkscape:connector-curvature="0"
   d="m -182.2,200 v -7.6 c 0,-0.3 -0.2,-0.4 -0.6,-0.4 h -3 c -0.5,0 -0.8,0.2 -0.8,0.7 0,0.5 0.3,0.7 0.9,0.7 h 2 v 6.6 h -3.1 c -0.6,0 -0.9,0.2 -0.9,0.7 0,0.5 0.3,0.7 0.8,0.7 h 8 c 0.6,0 0.8,-0.1 0.8,-0.7 0,-0.5 -0.3,-0.7 -0.8,-0.7 h -3.3 z m -1.9,-11 c 0,0.8 0.2,1 1.1,1 1,0 1.1,-0.2 1.1,-1.3 0,-1.1 -0.1,-1.4 -1.1,-1.4 -1,0 -1.1,0.3 -1.1,1.7 z" />
					<path
   id="path862_00000013893902536877448240000013160763157423984784_"
   inkscape:connector-curvature="0"
   d="m -174.3,200 h -0.2 c -0.8,0 -1.2,0.1 -1.2,0.7 0,0.5 0.3,0.7 0.9,0.7 h 2.4 c 0.8,0 1.1,0 1.1,-0.7 0,-0.6 -0.3,-0.7 -1,-0.7 -0.1,0 -0.3,0 -0.4,0 v -4.3 c 0,-1.5 1.4,-2.5 2.7,-2.5 1.3,0 2.1,0.8 2.1,2.5 v 4.3 h -0.3 c -0.7,0 -1,0.1 -1,0.7 0,0.7 0.3,0.7 1,0.7 h 2.3 c 0.7,0 1.1,-0.1 1.1,-0.7 0,-0.5 -0.3,-0.7 -1,-0.7 h -0.5 v -4.6 c 0,-2.4 -1.4,-3.7 -3.3,-3.7 -1.1,0 -2,0.5 -3,1.4 v -0.7 c 0,-0.3 -0.2,-0.4 -0.6,-0.4 h -0.9 c -1,0 -1.5,0 -1.5,0.7 0,0.5 0.3,0.7 0.9,0.7 h 0.5 z" />
					<path
   id="path864_00000124135719860363691200000008490744966578452396_"
   inkscape:connector-curvature="0"
   d="m -154.6,189.6 c -1,-0.4 -1.9,-0.7 -2.9,-0.7 -3.4,0 -5.9,2.8 -5.9,6.4 0,3.8 2.5,6.4 5.8,6.4 1.3,0 2.4,-0.4 3.6,-1.1 0.8,-0.5 1.2,-0.8 1.2,-1.3 0,-0.4 -0.3,-0.7 -0.8,-0.7 -0.4,0 -0.8,0.5 -1.5,0.8 -0.8,0.4 -1.7,0.7 -2.4,0.7 -2.3,0 -4.1,-1.8 -4.1,-4.8 0,-3.2 1.6,-5 4,-5 1.4,0 2.4,0.8 2.7,1.7 0.2,0.9 0.1,1.4 1,1.4 0.6,0 0.7,-0.3 0.7,-0.8 0,-0.1 0,-1 0,-2.5 0,-0.7 0,-1 -0.8,-1 -0.2,0 -0.4,0.1 -0.6,0.5 z" />
					<path
   id="path866_00000178889333990057967860000002181024212709912215_"
   inkscape:connector-curvature="0"
   d="m -139.8,196.7 c 0,-2.8 -2.1,-5 -5.4,-5 -3.3,0 -5.4,2.1 -5.4,5 0,2.9 2.1,5 5.4,5 3.3,0 5.4,-2.1 5.4,-5 z m -5.4,3.6 c -2.1,0 -3.6,-1.5 -3.6,-3.6 0,-2 1.5,-3.6 3.6,-3.6 2.1,0 3.6,1.5 3.6,3.6 0,2.1 -1.5,3.6 -3.6,3.6 z" />
					<path
   id="path868_00000042694651602087806580000003801850647992140935_"
   inkscape:connector-curvature="0"
   d="m -136.2,196.8 c 0,-2 1.3,-3.4 3.2,-3.4 1.9,0 3.2,1.4 3.2,3.3 0,1.9 -1.4,3.3 -3.3,3.3 -1.7,0 -3.1,-1.2 -3.1,-3.2 z m 6.8,4.6 h 2 c 0.4,0 0.7,-0.3 0.7,-0.7 0,-0.5 -0.3,-0.7 -0.9,-0.7 h -0.5 v -11.6 c 0,-0.3 -0.2,-0.4 -0.6,-0.4 h -2.1 c -0.5,0 -0.8,0.3 -0.8,0.7 0,0.7 0.4,0.7 1.4,0.7 h 0.5 v 3.9 c -0.8,-1 -1.9,-1.5 -3.3,-1.5 -2.8,0 -4.9,2.1 -4.9,4.9 0,2.9 2,4.9 4.6,4.9 1.5,0 2.7,-0.6 3.5,-1.6 v 0.8 c 0,0.5 0,0.6 0.4,0.6 z" />
					<path
   id="path870_00000067940024308746183870000005962808021161035912_"
   inkscape:connector-curvature="0"
   d="m -118.9,200 v -7.6 c 0,-0.3 -0.2,-0.4 -0.6,-0.4 h -3 c -0.5,0 -0.8,0.2 -0.8,0.7 0,0.5 0.3,0.7 0.9,0.7 h 2 v 6.6 h -3.1 c -0.6,0 -0.9,0.2 -0.9,0.7 0,0.5 0.3,0.7 0.8,0.7 h 8 c 0.6,0 0.8,-0.1 0.8,-0.7 0,-0.5 -0.3,-0.7 -0.8,-0.7 h -3.3 z m -2,-11 c 0,0.8 0.2,1 1.1,1 1,0 1.1,-0.2 1.1,-1.3 0,-1.1 -0.1,-1.4 -1.1,-1.4 -0.9,0 -1.1,0.3 -1.1,1.7 z" />
					<path
   id="path872_00000049191715424836625340000000123521020779895718_"
   inkscape:connector-curvature="0"
   d="m -102.6,195 v -1.9 c 0,-0.9 -0.1,-1.3 -0.7,-1.3 -0.5,0 -0.8,0.2 -0.8,0.7 v 0 c -1.1,-0.6 -2.2,-0.9 -3.2,-0.9 -2.9,0 -5.2,2.2 -5.2,5 0,2.8 2.2,5 5.2,5 2.5,0 4.8,-1.5 4.8,-2.5 0,-0.4 -0.3,-0.7 -0.7,-0.7 -0.5,0 -0.9,0.5 -1.6,0.9 -0.7,0.5 -1.6,0.8 -2.4,0.8 -2.1,0 -3.5,-1.4 -3.5,-3.5 0,-2 1.5,-3.4 3.6,-3.4 1.2,0 2.2,0.6 2.8,1.7 0.3,0.6 0.5,0.8 1,0.8 0.4,0.1 0.7,-0.2 0.7,-0.7 z" />
					<path
   id="path874_00000013177026145270914230000017568390943756089521_"
   inkscape:connector-curvature="0"
   d="m -98,195.8 c 0.4,-1.7 1.7,-2.7 3.5,-2.7 1.7,0 3,1.1 3.2,2.7 z m -0.1,1.3 h 6.9 c 1.3,0 1.7,0 1.7,-1 0,-2.3 -1.9,-4.5 -5,-4.5 -3.2,0 -5.4,2 -5.4,5 0,3.1 2,5 5.2,5 1.4,0 2.9,-0.3 4.3,-1 0.6,-0.3 0.9,-0.6 0.9,-1 0,-0.4 -0.3,-0.7 -0.7,-0.7 -0.9,0 -2.3,1.3 -4.3,1.3 -2.2,0 -3.4,-1.1 -3.6,-3.1 z" />
					<path
   id="path876_00000107588974592903712210000001057313823123662779_"
   inkscape:connector-curvature="0"
   d="M -81.6,190.5 V 204 h -1.7 c -0.4,0 -0.7,0.2 -0.7,0.6 0,0.4 0.3,0.7 0.7,0.7 h 2.8 c 0.4,0 0.8,-0.3 0.8,-0.7 V 190 c 0,-0.4 -0.3,-0.7 -0.8,-0.7 h -2.8 c -0.4,0 -0.7,0.2 -0.7,0.6 0,0.4 0.3,0.6 0.7,0.6 h 1.7 z" />
				</g>
				
					<path
   id="path1787_00000039123577171318713870000000214302873812694155_"
   inkscape:connector-curvature="0"
   sodipodi:nodetypes="csc"
   class="st5"
   d="m 106.1,599.1 c 0,0 2.1,25.6 -29.4,25.6 -31.5,0 -29.3,-25.6 -29.3,-25.6" />
				
					<path
   id="path1789_00000178892058768530055830000015084736066930838146_"
   inkscape:connector-curvature="0"
   sodipodi:nodetypes="cccccccccccccccccccscc"
   class="st6"
   d="m 64.1,631.3 c -3.1,-1 -6,-2.6 -8.1,-4.4 -0.8,-0.7 -2.3,-2.2 -3,-3 -2.5,-3 -4.2,-7.1 -4.8,-11.5 -0.2,-1.4 -0.4,-6.3 -0.3,-7.3 0.1,-0.6 0.2,-0.8 0.8,-1 0.4,-0.1 0.7,-0.3 0.8,-0.1 0.1,0.1 0,0.4 0,0.8 0,4.2 0.1,5 0.7,7.2 1.9,7.6 7.3,12.9 15.4,15.3 6.3,1.9 15.1,2 21.8,0.3 8.7,-2.2 14.8,-7.4 17.4,-15.1 0.8,-2.3 1.1,-4.1 1.2,-6.8 l 0.1,-1.8 0.3,0.1 c 0.4,0.1 0.8,0.3 0.9,0.4 0.1,0.2 0.2,2.6 0.1,4.1 -0.4,7.1 -3.7,13.9 -9,18.2 -2.4,2 -5.4,3.6 -8.8,4.7 l -1.1,0.4 c 0,0 -6.8,1.9 -11.5,1.9 -5,0 -11.5,-1.9 -11.5,-1.9 z" />
				
					<path
   id="path1791_00000014630799228077255160000013742746196194671799_"
   inkscape:connector-curvature="0"
   sodipodi:nodetypes="csc"
   class="st5"
   d="m 108,599.1 c 0,0 -1.9,32.9 -31.4,32.9 -29.5,0 -31.3,-32.9 -31.3,-32.9" />
				
					<path
   id="path1793_00000051385729919171082800000001171309281461784201_"
   inkscape:connector-curvature="0"
   sodipodi:nodetypes="csc"
   class="st5"
   d="m 47.3,595.9 c 0,0 -2,0.1 -2,0.9 0,1 0,2.3 0,2.3" />
				
					<path
   id="path1795_00000125578038961277772960000011967346046304231870_"
   inkscape:connector-curvature="0"
   sodipodi:nodetypes="cssc"
   class="st5"
   d="m 45.3,597.6 c 0,0 -0.5,0 -1.2,0 -0.3,0 -0.2,1.3 0,1.3 0.5,0 1.2,0 1.2,0" />
				
					<path
   id="path1797_00000026130367685245165680000014634132253916522117_"
   inkscape:connector-curvature="0"
   sodipodi:nodetypes="cssc"
   class="st5"
   d="m 108.1,597.6 c 0,0 0.5,0 1.2,0 0.3,0 0.2,1.3 0,1.3 -0.5,0 -1.2,0 -1.2,0" />
				
					<path
   id="path1799_00000162316840749450091780000016045531792700345234_"
   inkscape:connector-curvature="0"
   sodipodi:nodetypes="csccccccccccccccccccccccccccccccccccscccccccccccccccccccccccccccccccccc"
   class="st7"
   d="m 105.5,604.6 c 0,0 1.6,17.3 -27.8,17.3 C 48.4,621.9 50,604.1 50,604.1 v -3.8 h 2.9 v -4.2 H 50 v -3.7 l 2.9,-0.1 v -4.1 H 50 v -3.7 h 2.9 v -4.1 H 50 v -3.8 h 2.9 v -4.2 H 50 v -3.7 h 2.9 v -4.2 H 50 v -3.8 h 2.9 v -4.2 h -2.8 v -3.7 H 53 v -4.1 h -2.9 v -3.8 H 53 v -4.2 h -2.8 l 0.1,-4.1 c 0,0 -0.1,-14.1 27.6,-14.1 27.6,0 27.8,14.1 27.8,14.1 v 4.1 h -3 v 4.1 h 3.1 v 3.8 h -3.1 v 4.1 h 3.1 v 3.6 h -3.1 v 4.2 h 3.1 v 3.8 h -3.1 v 4.2 h 3.1 v 3.7 h -3.1 v 4.1 h 3.1 v 3.8 h -3.1 v 4.1 h 3.1 v 3.7 h -3.1 v 4.2 h 3.1 v 3.8 h -3.1 v 4.1 h 3.1 z" />
				<path
   id="rect1801_00000077305427656045631520000008720260419581610158_"
   class="st8"
   d="M 52.8,548.4 H 72 c 1,0 1.8,0.8 1.8,1.8 v 1.4 c 0,1 -0.8,1.8 -1.8,1.8 H 52.8 c -1,0 -1.8,-0.8 -1.8,-1.8 v -1.4 c 0,-1 0.8,-1.8 1.8,-1.8 z" />
				<path
   id="rect1803_00000006697538984542238890000004493211597483286949_"
   class="st8"
   d="M 52.8,556.2 H 72 c 1,0 1.8,0.8 1.8,1.8 v 1.4 c 0,1 -0.8,1.8 -1.8,1.8 H 52.8 c -1,0 -1.8,-0.8 -1.8,-1.8 V 558 c 0,-1 0.8,-1.8 1.8,-1.8 z" />
				<path
   id="rect1805_00000103975618486565318690000017422869700529834386_"
   class="st8"
   d="M 52.8,564.1 H 72 c 1,0 1.8,0.8 1.8,1.8 v 1.4 c 0,1 -0.8,1.8 -1.8,1.8 H 52.8 c -1,0 -1.8,-0.8 -1.8,-1.8 V 566 c 0,-1 0.8,-1.9 1.8,-1.9 z" />
				<path
   id="rect1807_00000020365013698281607440000003716627143096799891_"
   class="st8"
   d="M 52.8,572 H 72 c 1,0 1.8,0.8 1.8,1.8 v 1.4 c 0,1 -0.8,1.8 -1.8,1.8 H 52.8 c -1,0 -1.8,-0.8 -1.8,-1.8 v -1.4 c 0,-1 0.8,-1.8 1.8,-1.8 z" />
				<path
   id="rect1809_00000109717207900122503570000000327628445165511834_"
   class="st8"
   d="M 52.8,579.9 H 72 c 1,0 1.8,0.8 1.8,1.8 v 1.4 c 0,1 -0.8,1.8 -1.8,1.8 H 52.8 c -1,0 -1.8,-0.8 -1.8,-1.8 v -1.4 c 0,-1 0.8,-1.8 1.8,-1.8 z" />
				<path
   id="rect1811_00000070094173472566156540000014332014107534090929_"
   class="st8"
   d="M 52.8,587.7 H 72 c 1,0 1.8,0.8 1.8,1.8 v 1.4 c 0,1 -0.8,1.8 -1.8,1.8 H 52.8 c -1,0 -1.8,-0.8 -1.8,-1.8 v -1.4 c 0,-0.9 0.8,-1.8 1.8,-1.8 z" />
				<path
   id="rect1813_00000089544462375057015000000015151522888535364274_"
   class="st8"
   d="M 52.8,595.7 H 72 c 1,0 1.8,0.8 1.8,1.8 v 1.4 c 0,1 -0.8,1.8 -1.8,1.8 H 52.8 c -1,0 -1.8,-0.8 -1.8,-1.8 v -1.4 c 0,-1 0.8,-1.8 1.8,-1.8 z" />
				<path
   id="rect1815_00000000196115969435567660000005296025392171282049_"
   class="st8"
   d="M 52.8,540.5 H 72 c 1,0 1.8,0.8 1.8,1.8 v 1.4 c 0,1 -0.8,1.8 -1.8,1.8 H 52.8 c -1,0 -1.8,-0.8 -1.8,-1.8 v -1.4 c 0,-1 0.8,-1.8 1.8,-1.8 z" />
				<path
   id="rect1817_00000060004546128438581280000017533828541406583463_"
   class="st8"
   d="m 102.7,548.4 h -20 c -1,0 -1.8,0.8 -1.8,1.8 v 1.4 c 0,1 0.8,1.8 1.8,1.8 h 20 c 1,0 1.8,-0.8 1.8,-1.8 v -1.4 c 0.1,-1 -0.7,-1.8 -1.8,-1.8 z" />
				<path
   id="rect1819_00000116949151306173627670000013620048784860327313_"
   class="st8"
   d="m 102.7,556.2 h -20 c -1,0 -1.8,0.8 -1.8,1.8 v 1.4 c 0,1 0.8,1.8 1.8,1.8 h 20 c 1,0 1.8,-0.8 1.8,-1.8 V 558 c 0.1,-1 -0.7,-1.8 -1.8,-1.8 z" />
				<path
   id="rect1821_00000091708651286670598810000004587508002693906610_"
   class="st8"
   d="m 102.7,564.1 h -20 c -1,0 -1.8,0.8 -1.8,1.8 v 1.4 c 0,1 0.8,1.8 1.8,1.8 h 20 c 1,0 1.8,-0.8 1.8,-1.8 V 566 c 0.1,-1 -0.7,-1.9 -1.8,-1.9 z" />
				<path
   id="rect1823_00000004525987366639018500000012069000448370848640_"
   class="st8"
   d="m 102.7,572 h -20 c -1,0 -1.8,0.8 -1.8,1.8 v 1.4 c 0,1 0.8,1.8 1.8,1.8 h 20 c 1,0 1.8,-0.8 1.8,-1.8 v -1.4 c 0.1,-1 -0.7,-1.8 -1.8,-1.8 z" />
				<path
   id="rect1825_00000109720845296449733180000016410133143433947277_"
   class="st8"
   d="m 102.7,579.9 h -20 c -1,0 -1.8,0.8 -1.8,1.8 v 1.4 c 0,1 0.8,1.8 1.8,1.8 h 20 c 1,0 1.8,-0.8 1.8,-1.8 v -1.4 c 0.1,-1 -0.7,-1.8 -1.8,-1.8 z" />
				<path
   id="rect1827_00000041283193059933256900000005469568094304449417_"
   class="st8"
   d="m 102.7,587.7 h -20 c -1,0 -1.8,0.8 -1.8,1.8 v 1.4 c 0,1 0.8,1.8 1.8,1.8 h 20 c 1,0 1.8,-0.8 1.8,-1.8 v -1.4 c 0.1,-0.9 -0.7,-1.8 -1.8,-1.8 z" />
				<path
   id="rect1829_00000124877635065315130970000010861644644122278283_"
   class="st8"
   d="m 102.7,595.7 h -20 c -1,0 -1.8,0.8 -1.8,1.8 v 1.4 c 0,1 0.8,1.8 1.8,1.8 h 20 c 1,0 1.8,-0.8 1.8,-1.8 v -1.4 c 0.1,-1 -0.7,-1.8 -1.8,-1.8 z" />
				<path
   id="rect1831_00000166634414044041519890000008279177479517838465_"
   class="st8"
   d="m 102.7,540.5 h -20 c -1,0 -1.8,0.8 -1.8,1.8 v 1.4 c 0,1 0.8,1.8 1.8,1.8 h 20 c 1,0 1.8,-0.8 1.8,-1.8 v -1.4 c 0.1,-1 -0.8,-1.8 -1.8,-1.8 z" />
				
					<path
   id="path1833_00000097502920105908616980000004999869338610223774_"
   inkscape:connector-curvature="0"
   sodipodi:nodetypes="ccscc"
   class="st9"
   d="m 47.3,606.5 c 0,0 0,1.4 0.1,2.2 0,0 -1.3,24.8 29.4,24.8 30.7,0 31,-24.8 31,-24.8 0.1,-1 0,-2.9 0,-2.9" />
				
					<path
   id="path1835_00000164479626544029811710000001411781509451416233_"
   inkscape:connector-curvature="0"
   sodipodi:nodetypes="csc"
   class="st10"
   d="m 49.9,606.7 c 0,0 -1.1,21.5 27,21.5 28.2,0 28.6,-21.5 28.6,-21.5" />
				
					<path
   id="path1837_00000059271580347563655940000011336660793571143554_"
   inkscape:connector-curvature="0"
   sodipodi:nodetypes="csc"
   class="st11"
   d="m 47.3,605.8 c 0,0 0,-0.6 0.1,-1.2 0.2,-1.1 2,-1.2 2,-1.2" />
				
					<path
   id="path1839_00000142148203971443279320000007478118799980613022_"
   inkscape:connector-curvature="0"
   sodipodi:nodetypes="csc"
   class="st11"
   d="m 107.8,605.8 c 0,0 0,-0.7 -0.1,-1.2 -0.2,-1.1 -1.9,-1.1 -1.9,-1.1" />
				
					<path
   id="path1841_00000054265559865837271340000006198911331351816638_"
   inkscape:connector-curvature="0"
   sodipodi:nodetypes="caac"
   class="st12"
   d="m 47.3,607.2 c 0,0 -1.3,0.2 -1.7,-0.2 -0.3,-0.4 -0.3,-1.2 0,-1.5 0.4,-0.4 1.7,-0.1 1.7,-0.1" />
				
					<path
   id="path1843_00000173122931255105085620000005899666981785216678_"
   inkscape:connector-curvature="0"
   sodipodi:nodetypes="caac"
   class="st13"
   d="m 107.9,607.2 c 0,0 1.3,0.2 1.7,-0.2 0.3,-0.4 0.4,-1.2 0,-1.6 -0.4,-0.4 -1.7,-0.1 -1.7,-0.1" />
				<path
   id="path1845_00000004526443049512600390000018332833738469521288_"
   inkscape:connector-curvature="0"
   class="st14"
   d="m 46.2,606.8 c -0.2,0 -0.3,-0.1 -0.4,-0.2 -0.1,-0.2 -0.1,-0.5 0,-0.7 0,-0.1 0.1,-0.1 0.1,-0.1 0.1,0 0.8,-0.1 0.8,0 0,0 0,0.2 0,0.5 0,0.5 0,0.5 -0.1,0.5 0.1,0 -0.3,0 -0.4,0 z" />
				<path
   id="path1847_00000013889438732890250250000010042459624446056623_"
   inkscape:connector-curvature="0"
   class="st15"
   d="m 108.4,606.8 v 0 l -0.1,-0.5 c 0,-0.4 0,-0.5 0,-0.5 0,0 0.3,0 0.5,0 0.3,0 0.4,0 0.5,0.1 0.1,0.2 0.1,0.7 0,0.8 -0.1,0.1 -0.5,0.1 -0.9,0.1 z" />
			</g>
		</g>
	</g>
</g>
<g
   id="g6">
	<path
   class="st0"
   d="M643.2,0v512h512V0H643.2z M1138.7,495.3H659.8V161.1h478.9V495.3z"
   id="path3" />
	<g
   id="g4">
		
			<g
   id="flowRoot3912_00000059993642035553015440000006926510199688844180_"
   transform="matrix(2.5141107,0,0,2.5141107,508.7703,424.12253)">
			<path
   id="path2339_00000032624516037105757560000000961372303108258232_"
   d="M91.1-141.6c-0.4,0-0.6-0.1-0.8-0.2     c-0.2-0.2-0.3-0.4-0.3-0.6c0.1-0.2,0.2-0.5,0.4-0.6c0.2-0.2,0.6-0.3,1.1-0.3c0.7,0,1.4-0.1,2.1-0.3s1.3-0.5,1.8-0.8     c1.3-0.8,2.3-1.9,3-3.4c0.8-1.5,1.3-2.8,1.5-4.2c0.3-1.4,0.3-2.6,0-3.5c-0.2-1-0.8-1.5-1.5-1.5c-0.6,0.1-1.1,0.3-1.6,0.6     c-0.5,0.4-0.9,0.8-1.4,1.3c-0.4,0.5-0.8,1-1.2,1.6c-0.4,0.5-0.7,1-0.9,1.5c-0.5,0.8-1.2,2.2-2.1,4.2c-0.8,1.9-1.7,4-2.5,6.2     s-1.5,4.2-2,6.1c-0.5,1.8-0.7,3-0.5,3.4s0.2,0.6-0.1,0.7c-0.2,0.1-0.4,0.1-0.7,0c-0.2-0.2-0.5-0.5-0.7-0.9     c-0.2-0.5-0.2-1.1-0.2-1.9c0.1-1.9,0.7-4.4,1.8-7.5c1.1-3.1,2.3-6.9,3.6-11.2c0.5-1.8,0.6-3.1,0.1-3.8c-0.4-0.8-1.1-1-2.1-0.6     c-1.2,0.4-2.3,1.4-3.2,2.8c-0.9,1.5-1.4,2.9-1.4,4.3c0,0.7-0.2,1.1-0.5,1.5c-0.3,0.3-0.6,0.4-0.9,0.4c-0.3-0.1-0.6-0.3-0.9-0.6     c-0.2-0.4-0.3-0.9-0.2-1.5c0.2-1.1,0.6-2.1,1.2-2.9c0.5-0.8,1.1-1.6,1.7-2.2c0.7-0.7,1.3-1.2,2-1.5c0.7-0.4,1.4-0.6,1.9-0.7     c1.4-0.2,2.6,0.1,3.5,0.7c1,0.7,1.3,2,1.1,3.9c0.9-1.4,1.9-2.5,2.9-3.3c1.1-0.8,2.1-1.2,3-1.4c1.8-0.2,2.9,0.2,3.5,1.5     c0.7,1.1,0.8,2.6,0.5,4.3c-0.2,1.6-0.9,3.3-2,5.1c-1.1,1.7-2.5,3-4.2,3.9c-1.1,0.6-2.2,1-3.3,1.3     C91.9-141.8,91.3-141.6,91.1-141.6L91.1-141.6z M99.9-148.5c0.5-0.7,0.9-1.5,1.1-2.4c0.2-0.8,0.4-1.6,0.4-2.4s-0.1-1.3-0.2-1.8     s-0.2-0.8-0.3-0.8c0.1,0.2,0.2,0.7,0.2,1.4c0.1,0.6,0,1.3-0.1,2s-0.2,1.5-0.4,2.3C100.4-149.5,100.2-149,99.9-148.5L99.9-148.5z      M85.3-134.7c0.1,0.1,0.1,0.1,0.2-0.1c0.1-0.2,0-0.3-0.1-0.3C85.1-135,85-134.9,85.3-134.7z M85.5-135.9c0.1,0.1,0.2,0.1,0.3,0     c0.1-0.2,0-0.3-0.1-0.4c-0.1,0-0.2,0.1-0.3,0.2C85.3-136.1,85.3-136,85.5-135.9L85.5-135.9z M85.2-133.4c0.1,0.1,0.2,0,0.2-0.2     c0.1-0.2,0-0.3-0.1-0.3C84.9-133.8,84.9-133.7,85.2-133.4L85.2-133.4z M90.2-149.8c0.1-0.4,0-0.3-0.3,0.4s-0.7,1.5-1.1,2.5     s-0.7,1.9-1,2.9s-0.4,1.5-0.4,1.6c0.1-0.3,0.2-0.8,0.5-1.4c0.2-0.7,0.5-1.4,0.7-2.1c0.3-0.8,0.6-1.5,0.9-2.2     C89.8-148.7,90.1-149.3,90.2-149.8L90.2-149.8z M90.9-152.1c0.2,0.1,0.3,0,0.4-0.2s0-0.4-0.1-0.5c-0.1,0-0.2,0.1-0.4,0.3     C90.8-152.3,90.8-152.1,90.9-152.1z M90.5-150.5c0.2,0,0.3-0.1,0.4-0.3s0-0.3-0.1-0.4c-0.1,0-0.2,0.1-0.4,0.3     C90.3-150.7,90.3-150.6,90.5-150.5z" />
			<path
   id="path2341_00000008841386508180991220000006475309061923751050_"
   d="M107.7-149c0.9,0.1,1.5,0.3,1.9,0.8     c0.4,0.4,0.5,1,0.5,1.6s-0.3,1.4-0.8,2.1c-0.4,0.7-0.9,1.3-1.5,1.8c-1,0.8-2,1.4-3,1.9c-1,0.4-2,0.8-3,1.2     c-0.2,0.5-0.3,1.1-0.3,1.8c0,0.6,0.1,1.1,0.4,1.6c0.2,0.5,0.6,0.8,1.1,1.1c0.5,0.2,1.2,0.1,2.1-0.2c1.8-0.7,3.3-1.8,4.5-3.4     c1.3-1.6,2.4-3.4,3.5-5.2c0.2-0.2,0.3-0.2,0.5,0c0.1,0.1,0.2,0.3,0.1,0.5c-0.5,0.9-1.1,1.9-1.8,3.1c-0.7,1.1-1.6,2.2-2.5,3.2     s-1.9,1.8-3.1,2.4c-1.1,0.6-2.3,0.8-3.5,0.6c-1.4-0.2-2.4-0.8-2.9-1.8c-0.5-1.1-0.7-2.4-0.4-3.9c0.2-1.1,0.6-2.2,1.2-3.3     c0.5-1.1,1.1-2.1,1.8-3c0.8-0.9,1.6-1.6,2.5-2.2C105.8-148.8,106.7-149.1,107.7-149L107.7-149z M107.5-147.6     c-0.5,0.1-1,0.4-1.6,0.9c-0.5,0.5-1.1,1.1-1.7,1.8c-0.5,0.7-1,1.4-1.5,2.3c-0.4,0.8-0.7,1.5-0.8,2.3c1.1-0.4,2.1-0.8,2.9-1.3     c0.9-0.5,1.7-1.1,2.4-1.7c0.4-0.4,0.8-0.8,1.1-1.4c0.3-0.5,0.5-1.1,0.5-1.5c0.1-0.5,0.1-0.8-0.2-1.1     C108.4-147.7,108-147.8,107.5-147.6L107.5-147.6z M107.6-148.5c-0.7-0.1-1.4,0.1-1.9,0.4c-0.5,0.2-1,0.6-1.5,1     c-0.4,0.4-0.8,0.7-1,1.1c-0.2,0.4-0.3,0.6-0.3,0.6c0.1-0.2,0.3-0.4,0.5-0.7c0.3-0.4,0.7-0.7,1.1-1c0.4-0.4,0.9-0.7,1.4-0.9     C106.4-148.3,107-148.5,107.6-148.5L107.6-148.5z M102.5-144.9c0.1,0.1,0.2,0.2,0.3,0.1c0.2-0.1,0.2-0.2,0.1-0.4     C102.6-145.4,102.5-145.3,102.5-144.9L102.5-144.9z M101.9-144c0.1,0.1,0.2,0.2,0.3,0.1c0.1-0.1,0.1-0.2,0-0.4     c-0.1-0.1-0.2-0.1-0.3,0C101.9-144.2,101.9-144.1,101.9-144z M100.7-136.4c0.2,0.8,0.5,1.4,1,1.6c0.5,0.2,0.8,0.3,1.1,0.3     c-0.3,0-0.6-0.1-1-0.3C101.5-135,101.1-135.5,100.7-136.4z" />
			<path
   id="path2343_00000168834643743280703640000009179754795524022189_"
   d="M128.2-144.7c0.1-0.1,0.2-0.2,0.4-0.1     c0.2,0.1,0.3,0.2,0.3,0.3c-0.4,0.8-0.8,1.9-1.5,3.2c-0.6,1.2-1.3,2.4-2.1,3.5c-0.8,1.1-1.6,2.1-2.4,2.8s-1.7,1-2.5,0.9     s-1.4-0.5-1.7-1.1c-0.2-0.7-0.3-1.5-0.3-2.4c0.1-1,0.4-2.1,0.7-3.3c0.4-1.2,0.8-2.4,1.3-3.7c0.4-1.1,0.7-1.9,0.7-2.4     c0.1-0.5,0.1-0.7-0.2-0.6c-0.2,0-0.5,0.2-1,0.6c-0.4,0.4-1,1-1.6,1.6c-1.7,1.9-3.1,3.6-4.1,5.1s-1.6,3.1-1.8,5.1     c0,0.5-0.1,0.8-0.4,1c-0.2,0.1-0.5,0.1-0.7-0.1c-0.5-0.4-0.6-1.2-0.5-2.5c0.2-1.4,0.5-2.8,1-4.3s1-2.9,1.5-4.2s0.9-2.1,1.1-2.4     c0.4-0.5,0.9-0.9,1.4-1.2c0.5-0.2,1-0.3,1.4-0.3c0.4,0.1,0.6,0.3,0.6,0.6c0.1,0.4-0.1,0.8-0.5,1.5c-0.7,0.8-1.3,1.7-1.8,2.7     s-0.8,1.8-1.1,2.4c0.4-0.7,1-1.4,1.6-2.3c0.7-0.8,1.5-1.6,2.2-2.4c0.8-0.7,1.5-1.3,2.3-1.7c0.7-0.4,1.4-0.5,1.9-0.4     c0.5,0.2,1,0.6,1.3,1.3c0.3,0.6,0.1,1.7-0.5,3.2c-0.1,0.2-0.5,0.9-1.2,2.2c-0.6,1.3-1.1,2.6-1.4,3.9c-0.2,0.6-0.3,1.2-0.4,1.7     c0,0.5,0.1,0.9,0.3,1.2c0.2,0.2,0.5,0.2,0.9,0s1-0.7,1.6-1.5c1-1.2,1.8-2.4,2.6-3.5C126.5-141.3,127.3-142.8,128.2-144.7     L128.2-144.7z M115.4-148c-0.6,0.7-1.1,1.4-1.4,2.1c-0.3,0.7-0.4,1.2-0.4,1.5C114.1-145.4,114.7-146.6,115.4-148L115.4-148z      M111.6-136.7c0.1,0.1,0.2,0.1,0.3-0.1c0.1-0.2,0-0.4-0.1-0.4C111.4-137.1,111.3-137,111.6-136.7z M111.8-138     c0.1,0.1,0.2,0.1,0.3-0.1c0.1-0.2,0-0.4-0.1-0.4C111.6-138.5,111.5-138.3,111.8-138z M111.4-135.3c0.2,0.1,0.3,0,0.5-0.3     c0.1-0.2-0.1-0.3-0.4-0.3C111.2-135.7,111.1-135.5,111.4-135.3z M120-139.2c-0.1,0.5-0.1,0.4,0.2-0.2c0.3-0.6,0.6-1.4,0.9-2.3     c0.3-1,0.5-1.9,0.7-2.7c0.2-0.9,0.3-1.4,0.2-1.5c-0.1,0.7-0.3,1.7-0.8,3.1C120.7-141.4,120.3-140.2,120-139.2L120-139.2z      M119.3-137.3c0,0.1,0.1,0.1,0.2-0.1c0.1-0.2,0.1-0.4,0-0.4s-0.2,0.1-0.3,0.2C119.1-137.5,119.1-137.4,119.3-137.3L119.3-137.3z      M119.1-135.9c0.2,0.1,0.3,0,0.3-0.3c0-0.2-0.1-0.3-0.2-0.3C118.9-136.4,118.8-136.2,119.1-135.9z" />
			<path
   id="path2345_00000139281935957643611670000018180023043104238469_"
   d="M134.7-145.3c-0.2,0.4-0.5,0.6-0.9,0.7     c-0.3,0.1-0.6,0.1-0.8,0s-0.3-0.3-0.4-0.5c0-0.3,0.2-0.6,0.5-1c0.4-0.5,0.8-0.9,1.1-1.4c0.3-0.4,0.3-0.9,0.1-1.5     c-0.2-0.5-0.5-0.7-1-0.7c-0.5-0.1-1,0.1-1.5,0.4c-0.5,0.2-0.9,0.6-1.4,1.2c-0.4,0.5-0.6,1-0.6,1.6c0,0.5,0.1,1.1,0.4,1.5     c0.2,0.5,0.5,1,0.9,1.5s0.7,1,1.1,1.5c0.4,0.4,0.8,0.9,1.1,1.5c0.6,1.1,0.8,2.2,0.7,3.3c-0.1,1-0.5,1.9-1.1,2.7     c-0.6,0.7-1.4,1.3-2.3,1.7c-0.9,0.4-1.8,0.5-2.8,0.4c-0.8-0.1-1.5-0.4-2-0.8c-0.5-0.4-0.8-0.9-0.9-1.5s-0.1-1.2,0.1-1.8     s0.5-1.1,1-1.5c0.4-0.5,0.9-0.8,1.4-0.8c0.4-0.1,0.7,0,0.9,0.2c0.2,0.1,0.3,0.4,0.3,0.7s-0.2,0.6-0.7,0.9     c-1.3,0.9-1.8,1.8-1.7,2.5c0.1,0.7,0.7,1.2,1.9,1.4c0.7,0.1,1.4,0,2-0.4s1.1-0.9,1.4-1.5c0.4-0.7,0.5-1.4,0.4-2.3     c-0.1-0.9-0.5-1.9-1.2-2.9c-0.4-0.4-0.8-0.9-1.2-1.4s-0.7-1.1-1.1-1.5c-0.3-0.5-0.5-1.1-0.6-1.6c-0.2-0.6-0.2-1.2-0.1-1.7     c0.2-1,0.6-1.8,1.4-2.4c0.7-0.7,1.5-1.1,2.4-1.5c1.9-0.5,3.2-0.1,3.9,1.3c0.3,0.5,0.4,1.2,0.4,1.9     C135.4-146.5,135.2-145.9,134.7-145.3L134.7-145.3z M132.5-149.9c-0.8-0.1-1.4,0.1-1.9,0.4c-0.5,0.2-0.9,0.5-1.2,0.9     s-0.5,0.7-0.6,1.1c-0.1,0.3-0.2,0.5-0.2,0.5c0.1-0.2,0.3-0.4,0.5-0.7s0.4-0.6,0.7-0.9c0.3-0.3,0.7-0.6,1.1-0.8     C131.3-149.8,131.8-149.9,132.5-149.9L132.5-149.9z M128.6-146.3c0.1,0.1,0.2,0,0.3-0.1c0.1-0.2,0-0.3-0.2-0.4     C128.3-146.7,128.3-146.6,128.6-146.3z M128.7-145.2c0.1,0.1,0.2,0,0.3-0.1c0.1-0.2,0.1-0.3-0.2-0.4c-0.1,0-0.2,0.1-0.3,0.2     C128.5-145.4,128.6-145.3,128.7-145.2L128.7-145.2z M131.8-134.5c0.8-0.8,1.2-1.6,1.1-2.4c-0.1-0.7-0.2-1.3-0.5-1.6     c0.2,0.5,0.3,1.1,0.3,1.7C132.7-136.1,132.4-135.4,131.8-134.5z" />
			<path
   id="path2347_00000155836630155215414530000015047284142034706334_"
   d="M137.8-136.8c-0.1,0.6-0.2,1.1-0.1,1.4     c0.1,0.2,0.2,0.4,0.4,0.5c0.2,0,0.5-0.1,0.7-0.2c0.3-0.2,0.6-0.4,0.8-0.6c1-1,2-2.2,2.9-3.5s1.8-2.9,2.7-4.6     c0.1-0.1,0.2-0.2,0.4-0.1c0.2,0.1,0.3,0.2,0.3,0.3c-0.1,0.1-0.1,0.2-0.2,0.5c-0.1,0.2-0.2,0.4-0.3,0.7c-0.1,0.2-0.3,0.6-0.5,1     c-0.2,0.5-0.6,1.3-1.2,2.2c-0.5,0.8-1.2,1.7-1.9,2.5s-1.4,1.5-2.2,2.1c-0.7,0.5-1.4,0.8-2.1,0.6c-0.7-0.1-1.2-0.4-1.5-0.9     c-0.2-0.5-0.4-1.3-0.4-2.2c0.1-1,0.4-2.1,0.8-3.4c0.4-1.4,0.7-2.6,1.1-3.5c0.2-0.7,0.4-1.3,0.6-1.8c0.3-0.5,0.5-0.9,0.6-1     c0.4-0.5,0.8-0.9,1.2-1c0.5-0.2,0.8-0.2,1.1,0c0.3,0.1,0.5,0.4,0.5,0.8c0.1,0.4-0.1,0.9-0.5,1.5c-0.4,0.7-0.8,1.4-1.2,2     c-0.3,0.6-0.6,1.2-0.9,1.9c-0.2,0.6-0.5,1.3-0.7,2.1C138.3-138.9,138-137.9,137.8-136.8L137.8-136.8z M136.9-135.4     c0.1-0.8,0.1-1.5,0.2-2.2c0.1-0.7,0.2-1.3,0.3-1.8c-0.1,0.2-0.2,0.8-0.4,1.7C136.8-136.7,136.8-135.9,136.9-135.4L136.9-135.4z      M139.6-146.3c-0.4,0.1-0.5,0.3-0.1,0.5c0.1,0.1,0.2,0,0.3-0.2C139.9-146.1,139.8-146.2,139.6-146.3z M139-145     c-0.1,0-0.2,0.1-0.3,0.2c0,0.1,0.1,0.2,0.2,0.3c0.1,0.1,0.2,0.1,0.2-0.1C139.1-144.9,139.1-145,139-145L139-145z M140.3-147.4     c-0.4,0.1-0.4,0.3-0.2,0.5c0.1,0.1,0.2,0.1,0.3-0.1C140.5-147.1,140.5-147.2,140.3-147.4L140.3-147.4z M140.8-149.8     c0-0.2,0.1-0.8,0.4-1.6c0.2-0.8,0.5-1.5,0.8-2c0.2-0.5,0.5-0.8,0.9-0.8c0.4-0.1,0.8-0.1,1,0.1c0.3,0.2,0.5,0.5,0.5,0.9     c0.1,0.4-0.1,0.8-0.5,1.4c-0.5,0.7-1,1.1-1.4,1.5c-0.4,0.3-0.7,0.7-0.9,1.2c-0.1,0.2-0.3,0.3-0.5,0.3     C140.9-149.1,140.8-149.3,140.8-149.8L140.8-149.8z" />
			<path
   id="path2349_00000165933079715882943260000013560519104161881790_"
   d="M151.9-149c0.9,0.1,1.5,0.3,1.9,0.8     c0.4,0.4,0.5,1,0.5,1.6c-0.1,0.7-0.3,1.4-0.8,2.1c-0.4,0.7-0.9,1.3-1.5,1.8c-1,0.8-2,1.4-3,1.9c-1,0.4-2,0.8-3,1.2     c-0.2,0.5-0.3,1.1-0.3,1.8c0,0.6,0.1,1.1,0.4,1.6c0.2,0.5,0.6,0.8,1.1,1.1c0.5,0.2,1.2,0.1,2.1-0.2c1.8-0.7,3.3-1.8,4.5-3.4     c1.3-1.6,2.4-3.4,3.5-5.2c0.2-0.2,0.3-0.2,0.5,0c0.1,0.1,0.2,0.3,0.1,0.5c-0.5,0.9-1.1,1.9-1.8,3.1c-0.7,1.1-1.6,2.2-2.5,3.2     s-1.9,1.8-3.1,2.4c-1.1,0.6-2.3,0.8-3.5,0.6c-1.4-0.2-2.4-0.8-2.9-1.8c-0.5-1.1-0.7-2.4-0.4-3.9c0.2-1.1,0.6-2.2,1.2-3.3     c0.5-1.1,1.1-2.1,1.8-3c0.8-0.9,1.6-1.6,2.5-2.2C150-148.8,150.9-149.1,151.9-149L151.9-149z M151.7-147.6     c-0.5,0.1-1,0.4-1.6,0.9c-0.5,0.5-1.1,1.1-1.7,1.8c-0.5,0.7-1,1.4-1.5,2.3c-0.4,0.8-0.7,1.5-0.8,2.3c1.1-0.4,2.1-0.8,2.9-1.3     c0.9-0.5,1.7-1.1,2.4-1.7c0.4-0.4,0.8-0.8,1.1-1.4c0.3-0.5,0.5-1.1,0.5-1.5c0.1-0.5,0.1-0.8-0.2-1.1     C152.6-147.7,152.2-147.8,151.7-147.6L151.7-147.6z M151.8-148.5c-0.7-0.1-1.4,0.1-1.9,0.4c-0.5,0.2-1,0.6-1.5,1     c-0.4,0.4-0.8,0.7-1,1.1c-0.2,0.4-0.3,0.6-0.3,0.6c0.1-0.2,0.3-0.4,0.5-0.7c0.3-0.4,0.7-0.7,1.1-1c0.4-0.4,0.9-0.7,1.4-0.9     C150.6-148.3,151.2-148.5,151.8-148.5L151.8-148.5z M146.7-144.9c0.1,0.1,0.2,0.2,0.3,0.1c0.2-0.1,0.2-0.2,0.1-0.4     C146.8-145.4,146.7-145.3,146.7-144.9L146.7-144.9z M146.1-144c0.1,0.1,0.2,0.2,0.3,0.1c0.1-0.1,0.1-0.2,0-0.4     c-0.1-0.1-0.2-0.1-0.3,0C146.1-144.2,146.1-144.1,146.1-144z M144.9-136.4c0.2,0.8,0.5,1.4,1,1.6c0.5,0.2,0.8,0.3,1.1,0.3     c-0.3,0-0.6-0.1-1-0.3C145.7-135,145.3-135.5,144.9-136.4z" />
			<path
   id="path2351_00000151533853938236072890000007498698038135229056_"
   d="M156.4-134.8c-0.1,0.5-0.2,0.8-0.5,1     c-0.3,0.1-0.6,0.1-0.8-0.1c-0.5-0.4-0.7-1.2-0.5-2.6c0.2-1.4,0.5-2.9,1.1-4.4c0.5-1.6,1-3,1.6-4.4c0.6-1.3,1-2.1,1.3-2.4     c0.5-0.5,1-0.9,1.5-1.1c0.5-0.2,1-0.2,1.3-0.1c0.4,0.1,0.5,0.3,0.5,0.6c0.1,0.4-0.2,0.8-0.6,1.5c-0.8,1-1.5,1.9-1.9,2.7     s-0.7,1.5-0.8,1.9c0.2-0.2,0.7-0.8,1.3-1.6s1.3-1.7,2-2.4c0.8-0.8,1.6-1.5,2.4-2.1c0.8-0.6,1.6-0.8,2.4-0.6     c0.7,0.2,1.1,0.8,1.4,1.8c0.2,1,0,2.1-0.6,3.3c-0.3,0.6-0.6,1-1,1.2s-0.7,0.2-1,0.1c-0.2-0.1-0.4-0.4-0.5-0.8     c0-0.4,0.2-0.9,0.5-1.5c0.1-0.2,0.3-0.5,0.5-0.9s0.3-0.7,0.5-1.1c0.2-0.4,0.3-0.7,0.3-0.9c0-0.3-0.1-0.5-0.3-0.5     c-0.4,0-0.8,0.2-1.5,0.7c-0.6,0.4-1.3,1-2.1,1.8c-0.7,0.7-1.5,1.6-2.3,2.5c-0.7,0.9-1.4,1.8-2,2.7c-0.2,0.2-0.4,0.6-0.6,1.1     c-0.2,0.5-0.4,1-0.6,1.6c-0.2,0.5-0.3,1.1-0.5,1.6C156.5-135.6,156.4-135.2,156.4-134.8L156.4-134.8z M159.3-147.3     c-0.6,0.7-1.1,1.4-1.5,2.1c-0.3,0.7-0.4,1.1-0.4,1.4C157.9-144.7,158.5-145.9,159.3-147.3z M155.8-138c-0.3,0.5-0.5,1.2-0.6,2     c-0.2,0.8-0.2,1.2-0.2,1.4c0.1-0.4,0.2-0.9,0.4-1.5C155.6-136.9,155.7-137.5,155.8-138L155.8-138z M155.9-138.6     c0.1,0.1,0.2,0.1,0.4-0.1c0.1-0.2,0-0.4-0.1-0.4s-0.2,0.1-0.3,0.2C155.8-138.8,155.8-138.7,155.9-138.6L155.9-138.6z      M159.5-147.6c0.1,0.1,0.2,0.1,0.4-0.1c0.1-0.2,0.1-0.3,0-0.4C159.5-148.1,159.3-147.9,159.5-147.6z" />
			<path
   id="path2353_00000067196495586280753210000002499527017727996843_"
   d="M169-136.8c-0.1,0.6-0.2,1.1-0.1,1.4     c0.1,0.2,0.2,0.4,0.4,0.5c0.2,0,0.5-0.1,0.7-0.2c0.3-0.2,0.6-0.4,0.8-0.6c1-1,2-2.2,2.9-3.5s1.8-2.9,2.7-4.6     c0.1-0.1,0.2-0.2,0.4-0.1c0.2,0.1,0.3,0.2,0.3,0.3c-0.1,0.1-0.1,0.2-0.2,0.5c-0.1,0.2-0.2,0.4-0.3,0.7c-0.1,0.2-0.3,0.6-0.5,1     c-0.2,0.5-0.6,1.3-1.2,2.2c-0.5,0.8-1.2,1.7-1.9,2.5s-1.4,1.5-2.2,2.1c-0.7,0.5-1.4,0.8-2.1,0.6c-0.7-0.1-1.2-0.4-1.5-0.9     c-0.2-0.5-0.4-1.3-0.4-2.2c0.1-1,0.4-2.1,0.8-3.4c0.4-1.4,0.7-2.6,1.1-3.5c0.2-0.7,0.4-1.3,0.6-1.8c0.3-0.5,0.5-0.9,0.6-1     c0.4-0.5,0.8-0.9,1.2-1c0.5-0.2,0.8-0.2,1.1,0c0.3,0.1,0.5,0.4,0.5,0.8s-0.1,0.9-0.5,1.5c-0.4,0.7-0.8,1.4-1.2,2     c-0.3,0.6-0.6,1.2-0.9,1.9c-0.2,0.6-0.5,1.3-0.7,2.1C169.5-138.9,169.2-137.9,169-136.8L169-136.8z M168.1-135.4     c0.1-0.8,0.1-1.5,0.2-2.2c0.1-0.7,0.2-1.3,0.3-1.8c-0.1,0.2-0.2,0.8-0.4,1.7C168-136.7,167.9-135.9,168.1-135.4L168.1-135.4z      M170.8-146.3c-0.4,0.1-0.5,0.3-0.1,0.5c0.1,0.1,0.2,0,0.3-0.2C171-146.1,171-146.2,170.8-146.3z M170.2-145     c-0.1,0-0.2,0.1-0.3,0.2c0,0.1,0.1,0.2,0.2,0.3c0.1,0.1,0.2,0.1,0.2-0.1C170.3-144.9,170.3-145,170.2-145L170.2-145z      M171.5-147.4c-0.4,0.1-0.4,0.3-0.2,0.5c0.1,0.1,0.2,0.1,0.3-0.1C171.7-147.1,171.7-147.2,171.5-147.4L171.5-147.4z M172-149.8     c0-0.2,0.1-0.8,0.4-1.6c0.2-0.8,0.5-1.5,0.8-2c0.2-0.5,0.5-0.8,0.9-0.8c0.4-0.1,0.8-0.1,1,0.1c0.3,0.2,0.5,0.5,0.5,0.9     c0.1,0.4-0.1,0.8-0.5,1.4c-0.5,0.7-1,1.1-1.4,1.5c-0.4,0.3-0.7,0.7-0.9,1.2c-0.1,0.2-0.3,0.3-0.5,0.3     C172.1-149.1,172-149.3,172-149.8L172-149.8z" />
		</g>
		
			<g
   id="flowRoot3920_00000111869758423617504330000002692630354127804812_"
   transform="matrix(1.1839685,0,0,1.0995484,268.57828,311.03806)">
			<path
   id="path2318_00000077302563479996246360000004450434827756461475_"
   d="M440-159.9v-29h3.7c0.9,0,1.5-0.5,1.5-1.4     s-0.5-1.4-1.4-1.4h-6c-1,0-1.6,0.6-1.6,1.5v31.6c0,0.8,0.6,1.5,1.6,1.5h6c0.9,0,1.4-0.5,1.4-1.4c0-0.8-0.6-1.3-1.5-1.3H440     V-159.9z" />
			<path
   id="path2320_00000048465276387200227780000017777805451662149539_"
   d="M470-168.5v-16.4c0-0.5-0.4-0.9-1.3-0.9h-6.5     c-1.2,0-1.8,0.5-1.8,1.5s0.6,1.6,1.9,1.6h4.3v14.2h-6.8c-1.2,0-1.9,0.5-1.9,1.5s0.6,1.6,1.8,1.6H477c1.3,0,1.8-0.3,1.8-1.6     c0-1.1-0.5-1.5-1.7-1.5L470-168.5z M465.9-192.2c0,1.8,0.5,2.2,2.3,2.2c2.1,0,2.3-0.5,2.3-2.8s-0.2-3-2.3-3     C466.2-195.9,465.9-195.2,465.9-192.2L465.9-192.2z" />
			<path
   id="path2322_00000114773997779475713480000004407376961999358650_"
   d="M487-168.5h-0.5c-1.8,0-2.6,0.3-2.6,1.5     c0,1,0.6,1.6,1.9,1.6h5.2c1.7,0,2.4-0.1,2.4-1.6c0-1.2-0.6-1.6-2.1-1.6c-0.3,0-0.6,0-1,0v-9.2c0-3.3,3.1-5.3,5.8-5.3     c2.9,0,4.5,1.8,4.5,5.3v9.2h-0.7c-1.6,0-2.2,0.3-2.2,1.5c0,1.5,0.6,1.6,2.2,1.6h4.9c1.6,0,2.4-0.3,2.4-1.6c0-1.1-0.7-1.5-2.1-1.5     h-1v-10c0-5.1-3-7.9-7.2-7.9c-2.3,0-4.4,1-6.5,3v-1.5c0-0.5-0.4-0.9-1.3-0.9h-2c-2.1,0-3.1,0-3.1,1.5c0,1.1,0.6,1.6,2,1.6h1     L487-168.5z" />
			<path
   id="path2324_00000098209629438803090090000015581185108287705748_"
   d="M529.6-190.9c-2.1-0.9-4.1-1.4-6.2-1.4     c-7.3,0-12.7,5.9-12.7,13.8c0,8.1,5.4,13.7,12.6,13.7c2.9,0,5.2-0.8,7.7-2.4c1.6-1,2.5-1.8,2.5-2.8c0-0.9-0.7-1.6-1.6-1.6     c-0.8,0-1.7,1-3.1,1.8c-1.7,1-3.6,1.5-5.2,1.5c-4.9,0-8.8-3.9-8.8-10.3c0-7,3.5-10.8,8.7-10.8c2.9,0,5.2,1.6,5.8,3.7     c0.5,2,0.3,3.1,2.2,3.1c1.3,0,1.6-0.6,1.6-1.8c0-0.3-0.1-2.1-0.1-5.5c0-1.5-0.1-2.2-1.6-2.2C530.3-192,529.9-191.7,529.6-190.9     L529.6-190.9z" />
			<path
   id="path2326_00000081608688201714418130000017286554372726727842_"
   d="M561.4-175.6c0-6.1-4.5-10.7-11.6-10.7     c-7.1,0-11.6,4.6-11.6,10.7c0,6.2,4.6,10.7,11.6,10.7C556.8-164.9,561.4-169.4,561.4-175.6z M549.9-167.9c-4.6,0-7.8-3.3-7.8-7.7     s3.2-7.7,7.8-7.7c4.6,0,7.8,3.3,7.8,7.7C557.6-171.1,554.4-167.9,549.9-167.9z" />
			<path
   id="path2328_00000000212960240825471380000008075231469606178205_"
   d="M569.3-175.3c0-4.4,2.8-7.3,7-7.3c4.1,0,7,3,7,7.1     s-2.9,7.2-7,7.2C572.3-168.4,569.3-171.1,569.3-175.3L569.3-175.3z M583.8-165.4h4.2c1,0,1.6-0.6,1.6-1.6c0-1.1-0.6-1.5-2-1.5h-1     v-24.9c0-0.6-0.4-0.9-1.3-0.9h-4.5c-1.2,0-1.8,0.5-1.8,1.6c0,1.5,1,1.6,3,1.6h1.2v8.5c-1.7-2.1-4.2-3.2-7.2-3.2     c-6,0-10.5,4.6-10.5,10.5c0,6.2,4.3,10.6,9.8,10.6c3.1,0,5.9-1.3,7.6-3.5v1.8C582.9-165.7,583.1-165.4,583.8-165.4L583.8-165.4z" />
			<path
   id="path2330_00000079452863758089800560000016816246360146187952_"
   d="M606.5-168.5v-16.4c0-0.5-0.4-0.9-1.3-0.9h-6.5     c-1.2,0-1.8,0.5-1.8,1.5s0.6,1.6,1.9,1.6h4.3v14.2h-6.8c-1.2,0-1.9,0.5-1.9,1.5s0.6,1.6,1.8,1.6h17.2c1.3,0,1.8-0.3,1.8-1.6     c0-1.1-0.5-1.5-1.7-1.5L606.5-168.5z M602.3-192.2c0,1.8,0.5,2.2,2.3,2.2c2.1,0,2.3-0.5,2.3-2.8s-0.2-3-2.3-3     C602.6-195.9,602.3-195.2,602.3-192.2L602.3-192.2z" />
			<path
   id="path2332_00000064345976843972783580000009172233234516097928_"
   d="M641.7-179.2v-4.1c0-1.9-0.2-2.7-1.6-2.7     c-1.1,0-1.7,0.4-1.7,1.4v0.1c-2.4-1.2-4.7-1.9-7-1.9c-6.3,0-11.2,4.7-11.2,10.8s4.8,10.7,11.2,10.7c5.4,0,10.3-3.3,10.3-5.4     c0-0.9-0.6-1.5-1.5-1.5c-1.2,0-2,1.1-3.4,2c-1.6,1-3.4,1.6-5.2,1.6c-4.6,0-7.6-3.1-7.6-7.5c0-4.3,3.2-7.3,7.8-7.3     c2.6,0,4.7,1.2,6.1,3.6c0.7,1.2,1.1,1.8,2.1,1.8C641.1-177.5,641.7-178.1,641.7-179.2L641.7-179.2z" />
			<path
   id="path2334_00000155861149663260806460000001794592866761272223_"
   d="M651.6-177.5c0.9-3.7,3.7-5.9,7.6-5.9     c3.6,0,6.4,2.3,6.8,5.9H651.6z M651.5-174.6h14.9c2.7,0,3.7,0,3.7-2.1c0-4.9-4.1-9.7-10.8-9.7c-6.8,0-11.6,4.4-11.6,10.7     c0,6.6,4.3,10.8,11.1,10.8c3,0,6.2-0.7,9.3-2.2c1.3-0.6,2-1.3,2-2.2c0-0.8-0.7-1.5-1.5-1.5c-2,0-4.9,2.8-9.3,2.8     C654.5-168,651.7-170.4,651.5-174.6L651.5-174.6z" />
			<path
   id="path2336_00000127732046435172029050000013666474028753440425_"
   d="M686.9-188.9v29h-3.7c-0.9,0-1.5,0.5-1.5,1.3     c0,0.9,0.5,1.4,1.4,1.4h5.9c1,0,1.6-0.6,1.6-1.5v-31.6c0-0.8-0.7-1.5-1.6-1.5h-5.9c-0.9,0-1.4,0.5-1.4,1.4c0,0.8,0.6,1.4,1.5,1.4     h3.7V-188.9z" />
		</g>
	</g>
	<circle
   class="st0"
   cx="751.6"
   cy="415.9"
   r="96.1"
   id="circle4" />
	<g
   id="g5">
		<circle
   id="circle67"
   class="st16"
   cx="741.7"
   cy="434.1"
   r="70.3" />
		<circle
   id="path65"
   class="st17"
   cx="731.1"
   cy="445.5"
   r="46.3" />
		<g
   id="flowRoot1167"
   transform="matrix(0.68175725,0,0,0.68196999,-178.61347,-74.072504)">
			<path
   id="path1274"
   inkscape:connector-curvature="0"
   class="st18"
   d="M1423.8,646.3h0.9c1.2,0,2-0.2,2.4-0.6     c0.4-0.4,0.6-1.2,0.6-2.4V640c0-1.4,0.2-2.4,0.6-3s1.1-1,2-1.3c-1-0.2-1.6-0.6-2-1.3c-0.4-0.6-0.6-1.6-0.6-3v-3.2     c0-1.2-0.2-2-0.6-2.4s-1.2-0.6-2.4-0.6h-0.9v-1.9h0.8c2.2,0,3.6,0.3,4.3,1c0.7,0.6,1.1,1.9,1.1,3.8v3.1c0,1.3,0.2,2.2,0.7,2.7     s1.3,0.7,2.6,0.7h0.8v1.9h-0.8c-1.2,0-2.1,0.3-2.6,0.8s-0.7,1.4-0.7,2.7v3.1c0,1.9-0.4,3.2-1.1,3.9c-0.7,0.6-2.2,1-4.3,1h-0.8     V646.3z" />
			<path
   id="path1272"
   inkscape:connector-curvature="0"
   class="st18"
   d="M1408.5,646.3v1.9h-0.8c-2.2,0-3.6-0.3-4.4-1     c-0.7-0.6-1.1-1.9-1.1-3.9v-3.1c0-1.3-0.2-2.2-0.7-2.7s-1.3-0.8-2.6-0.8h-0.8v-1.9h0.8c1.2,0,2.1-0.2,2.6-0.7s0.7-1.4,0.7-2.7     v-3.1c0-1.9,0.4-3.2,1.1-3.8s2.2-1,4.4-1h0.8v1.9h-0.9c-1.2,0-2,0.2-2.4,0.6s-0.6,1.2-0.6,2.4v3.2c0,1.4-0.2,2.4-0.6,3     s-1.1,1-2,1.3c1,0.2,1.6,0.7,2,1.3s0.6,1.6,0.6,3v3.2c0,1.2,0.2,2,0.6,2.4s1.2,0.6,2.4,0.6h0.9V646.3z" />
			<path
   id="path1270"
   inkscape:connector-curvature="0"
   class="st18"
   d="M1412,612.8c-4.6,0-8.5,2.4-9.9,5.9     c-0.6-1.6-1.7-2.9-3.2-3.8c-4.1-2.4-9.9-1.2-13,2.7l0,0c-2,2.5-2.5,5.7-1.2,8.3l0,0c-1.4-2.2-3.9-3.5-6.5-3.5     c-4.3,0-7.8,3.5-7.8,7.8l0,0c0,1.1,0.2,2.2,0.7,3.2c-0.4-0.1-0.9-0.2-1.3-0.2c-4.2,0-7.6,5.6-7.6,12.6s3.4,12.6,7.6,12.6     c0.1,0,0.2,0,0.3,0c-0.1,0.2-0.2,0.5-0.4,0.7c-1.9,4.6,1,10.2,6.5,12.6c3.8,1.6,8,1.3,10.9-0.9c-0.1,1.4,0.3,2.8,1,4.1     c2.4,4.1,8,6,12.6,4.1l0,0c2.7-1.1,4.5-3.2,5-5.8c1.3,3.7,7.1,5.7,13.4,4.7c6.9-1.1,11.9-5.3,11.2-9.5l0,0c0-0.1,0-0.2-0.1-0.3     c0.1,0,0.1,0,0.2-0.1c1.8,2.7,4.8,4.3,8,4.3c5.3,0,9.7-4.3,9.7-9.7c0-1.6-0.4-3.1-1.1-4.5c0.4,0.1,0.8,0.2,1.2,0.2     c4.2,0,7.6-5.6,7.6-12.6s-3.4-12.6-7.6-12.6c-0.5,0-1,0.1-1.4,0.2c1.6-5-1.9-11-8.1-14c-5.8-2.8-12.2-2.1-15.4,1.6     c-0.7-4.1-4.7-7.4-9.7-8.1C1413.3,612.8,1412.6,612.8,1412,612.8L1412,612.8z" />
			<path
   id="path1266"
   inkscape:connector-curvature="0"
   class="st18"
   d="M1379.7,698.4c0,2.9-2.3,5.2-5.2,5.2l0,0     c-2.9,0-5.2-2.3-5.2-5.2l0,0c0-2.9,2.3-5.2,5.2-5.2l0,0C1377.4,693.2,1379.7,695.5,1379.7,698.4L1379.7,698.4z" />
			<path
   id="path1264"
   inkscape:connector-curvature="0"
   class="st18"
   d="M1368.1,707.7c0,2.1-1.7,3.8-3.8,3.8     c-2.1,0-3.8-1.7-3.8-3.8s1.7-3.8,3.8-3.8S1368.1,705.6,1368.1,707.7z" />
			<path
   id="path1390"
   inkscape:connector-curvature="0"
   class="st18"
   d="M1389.6,685c0,3.7-3,6.7-6.7,6.7l0,0c-3.7,0-6.7-3-6.7-6.7     l0,0c0-3.7,3-6.7,6.7-6.7l0,0C1386.6,678.3,1389.6,681.3,1389.6,685L1389.6,685z" />
		</g>
		<path
   id="rect1244"
   inkscape:connector-curvature="0"
   sodipodi:nodetypes="ccccccccccccccccc"
   class="st19"
   d="M700.1,426.1    c0,10.9,0.9,21,10.3,26.4c4.3,2.5,9.1,3.8,13.9,4.1V485h-24.2v3.1h51.4V485h-24.1v-28.4c4.7-0.3,9.3-1.6,13.6-4    c9.4-5.5,10.6-15.5,10.6-26.4h-2.9c0,9.9-0.6,19-9.2,24c-8.6,4.9-19.1,4.9-27.6,0c-8.6-4.9-8.9-14.1-8.9-24h-2.9V426.1z" />
		<path
   id="rect1336"
   inkscape:connector-curvature="0"
   class="st20"
   d="M724.3,381.4h3.1c9.2,0,16.7,7.5,16.7,16.9v33.2    c0,9.3-7.4,16.9-16.7,16.9h-3.1c-9.2,0-16.7-7.5-16.7-16.9v-33.2C707.6,388.9,715.1,381.4,724.3,381.4z" />
		<path
   id="rect1338"
   inkscape:connector-curvature="0"
   class="st21"
   d="M726.7,398.4h17.4v5.3h-17.4V398.4z" />
		<path
   id="rect1340"
   inkscape:connector-curvature="0"
   class="st21"
   d="M726.7,417.1h17.4v5.3h-17.4V417.1z" />
		<path
   id="rect1342"
   inkscape:connector-curvature="0"
   class="st21"
   d="M726.7,407.8h17.4v5.3h-17.4V407.8z" />
		<g
   id="flowRoot1350"
   transform="matrix(0.70006668,0,0,0.70028513,-230.19971,-552.87722)">
			<path
   id="path1429"
   inkscape:connector-curvature="0"
   class="st22"
   d="M1438.1,1323.5v1.9h-0.8c-2.2,0-3.6-0.3-4.4-1     c-0.7-0.6-1.1-1.9-1.1-3.9v-3.1c0-1.3-0.2-2.2-0.7-2.7s-1.3-0.8-2.6-0.8h-0.8v-1.9h0.8c1.2,0,2.1-0.2,2.6-0.7s0.7-1.4,0.7-2.7     v-3.1c0-1.9,0.4-3.2,1.1-3.8c0.7-0.6,2.2-1,4.4-1h0.8v1.9h-0.9c-1.2,0-2,0.2-2.4,0.6s-0.6,1.2-0.6,2.4v3.2c0,1.4-0.2,2.4-0.6,3     s-1.1,1-2,1.3c1,0.2,1.6,0.7,2,1.3c0.4,0.6,0.6,1.6,0.6,3v3.2c0,1.2,0.2,2,0.6,2.4s1.2,0.6,2.4,0.6h0.9V1323.5z" />
			<path
   id="path1431"
   inkscape:connector-curvature="0"
   class="st22"
   d="M1453.4,1323.5h0.9c1.2,0,2-0.2,2.4-0.6s0.6-1.2,0.6-2.4     v-3.2c0-1.4,0.2-2.4,0.6-3s1.1-1,2-1.3c-1-0.2-1.6-0.6-2-1.3c-0.4-0.6-0.6-1.6-0.6-3v-3.2c0-1.2-0.2-2-0.6-2.4s-1.2-0.6-2.4-0.6     h-0.9v-1.9h0.8c2.2,0,3.6,0.3,4.3,1c0.7,0.6,1.1,1.9,1.1,3.8v3.1c0,1.3,0.2,2.2,0.7,2.7s1.3,0.7,2.6,0.7h0.8v1.9h-0.8     c-1.2,0-2.1,0.3-2.6,0.8s-0.7,1.4-0.7,2.7v3.1c0,1.9-0.4,3.2-1.1,3.9c-0.7,0.6-2.2,1-4.3,1h-0.8V1323.5z" />
		</g>
	</g>
</g>
</svg>
